<?xml version="1.0" encoding="UTF-8" standalone="no"?>
<!-- Created with Inkscape (http://www.inkscape.org/) -->
<svg
   xmlns:svg="http://www.w3.org/2000/svg"
   xmlns="http://www.w3.org/2000/svg"
   version="1.0"
   width="500"
   height="500"
   id="svg1489">
  <defs
     id="defs1492" />
  <rect
     width="500"
     height="500"
     rx="29.017742"
     ry="29.017742"
     x="0"
     y="0"
     style="color:#000000;fill:#000000;fill-opacity:1;fill-rule:nonzero;stroke:none;stroke-width:5.17299986;stroke-linecap:round;stroke-linejoin:miter;marker:none;marker-start:none;marker-mid:none;marker-end:none;stroke-miterlimit:4;stroke-dasharray:none;stroke-dashoffset:0;stroke-opacity:1;visibility:visible;display:inline;overflow:visible"
     id="blank" />
  <path
     d="M 250.00001,495 L 5,250.00001 L 249.99999,5 L 495,249.99999 L 250.00001,495 z "
     style="color:#000000;fill:#ffffff;fill-opacity:1;fill-rule:nonzero;stroke:none;stroke-width:5.17299986;stroke-linecap:round;stroke-linejoin:miter;marker:none;marker-start:none;marker-mid:none;marker-end:none;stroke-miterlimit:4;stroke-dasharray:none;stroke-dashoffset:0;stroke-opacity:1;visibility:visible;display:inline;overflow:visible"
     id="diamond" />
  <path
     d="M 197.17794,136.94239 C 197.6474,137.02651 204.32206,136.94239 204.32206,136.94239 L 204.32206,95.875 L 197.17794,95.875 L 197.17794,78.000001 L 223.13861,78.000001 C 223.13861,78.000001 249.75097,105 249.75097,105 L 276.95938,78.000001 L 302.82206,78.000001 C 302.82206,78.000001 302.82206,95.875 302.82206,95.875 C 302.82206,95.875 295.93302,95.875 295.93302,95.875 C 295.93302,95.875 295.93302,136.94239 295.93302,136.94239 C 295.93302,136.94239 302.82206,136.94239 302.82206,136.94239 L 302.82206,154 L 270.30018,154 C 270.30018,154 270.30018,136.94239 270.30018,136.94239 L 276.95938,136.94239 C 276.95938,136.94239 276.95938,107.66076 276.95938,107.66076 L 249.75097,133.40127 C 249.75097,133.40127 223.13861,107.01389 223.13861,107.01389 C 223.13861,107.01389 223.13861,136.94239 223.13861,136.94239 C 223.13861,136.94239 230.40622,136.94239 230.40622,136.94239 C 230.40622,136.94239 230.35634,154 229.93887,154 L 197.17794,154 C 197.17794,154 197.17794,136.94239 197.17794,136.94239 z "
     style="fill:#000000"
     id="M" />
  <g
     id="g1459">
    <path
       d="M 149.29,353.67999 L 149.29,215.43999 L 136.33,215.43999 L 136.33,202.95999 C 140.48999,202.16014 143.92999,201.04015 146.65,199.59999 C 149.36998,198.00015 152.08998,195.76015 154.81,192.87999 L 169.69,192.87999 L 169.69,353.67999 L 149.29,353.67999 M 275.08375,273.03999 C 274.92367,277.52007 274.76367,282.72006 274.60375,288.63999 C 274.60367,294.40005 274.28367,300.40005 273.64375,306.63999 C 273.16367,312.72003 272.20367,318.72003 270.76375,324.63999 C 269.48367,330.56002 267.48367,335.84001 264.76375,340.47999 C 262.04368,345.12 258.52368,348.88 254.20375,351.75999 C 249.88369,354.47999 244.4437,355.83999 237.88375,355.83999 C 231.16371,355.83999 225.56372,354.47999 221.08375,351.75999 C 216.60372,348.88 212.92373,345.12 210.04375,340.47999 C 207.32373,335.84001 205.24374,330.56002 203.80375,324.63999 C 202.36374,318.72003 201.32374,312.72003 200.68375,306.63999 C 200.20374,300.40005 199.96374,294.40005 199.96375,288.63999 C 199.96374,282.72006 199.96374,277.52007 199.96375,273.03999 C 199.96374,268.24008 200.04374,262.88008 200.20375,256.95999 C 200.36374,251.0401 200.76374,245.0401 201.40375,238.95999 C 202.20374,232.72011 203.32374,226.72012 204.76375,220.95999 C 206.36373,215.04013 208.52373,209.84014 211.24375,205.35999 C 214.12373,200.72015 217.72372,197.04015 222.04375,194.31999 C 226.36371,191.44015 231.64371,190.00016 237.88375,189.99999 C 244.4437,190.00016 249.88369,191.44015 254.20375,194.31999 C 258.68368,197.04015 262.28368,200.72015 265.00375,205.35999 C 267.72367,209.84014 269.80367,215.04013 271.24375,220.95999 C 272.68367,226.72012 273.64367,232.72011 274.12375,238.95999 C 274.76367,245.0401 275.08367,251.1201 275.08375,257.19999 C 275.08367,263.12008 275.08367,268.40008 275.08375,273.03999 M 253.48375,273.03999 C 253.48369,271.12008 253.48369,268.32008 253.48375,264.63999 C 253.64369,260.80009 253.64369,256.64009 253.48375,252.15999 C 253.32369,247.5201 253.00369,242.8001 252.52375,237.99999 C 252.04369,233.20011 251.24369,228.80012 250.12375,224.79999 C 249.00369,220.80013 247.40369,217.52013 245.32375,214.95999 C 243.4037,212.40013 240.9237,211.04014 237.88375,210.87999 C 234.84371,211.04014 232.28371,212.40013 230.20375,214.95999 C 228.12371,217.52013 226.44371,220.80013 225.16375,224.79999 C 223.88372,228.80012 222.92372,233.20011 222.28375,237.99999 C 221.64372,242.8001 221.24372,247.5201 221.08375,252.15999 C 220.92372,256.64009 220.84372,260.80009 220.84375,264.63999 C 220.84372,268.32008 220.84372,271.12008 220.84375,273.03999 C 220.84372,274.96007 220.84372,277.84007 220.84375,281.67999 C 220.84372,285.36006 220.92372,289.52006 221.08375,294.15999 C 221.24372,298.64005 221.64372,303.36004 222.28375,308.31999 C 222.92372,313.12003 223.88372,317.52003 225.16375,321.51999 C 226.44371,325.36002 228.04371,328.56002 229.96375,331.11999 C 232.04371,333.68001 234.68371,334.96001 237.88375,334.95999 C 240.9237,334.96001 243.4037,333.76001 245.32375,331.35999 C 247.24369,328.80002 248.76369,325.52002 249.88375,321.51999 C 251.00369,317.52003 251.80369,313.12003 252.28375,308.31999 C 252.92369,303.52004 253.32369,298.88005 253.48375,294.39999 C 253.64369,289.76006 253.64369,285.52006 253.48375,281.67999 C 253.48369,277.84007 253.48369,274.96007 253.48375,273.03999 M 364.1275,227.19999 C 364.12743,230.40012 363.88743,233.36011 363.4075,236.07999 C 362.92743,238.64011 362.04743,241.4401 360.7675,244.47999 C 359.48743,247.5201 357.72743,250.9601 355.4875,254.79999 C 353.24744,258.64009 350.28744,263.20008 346.6075,268.47999 C 341.80745,276.16007 337.16745,284.00006 332.6875,291.99999 C 328.36746,299.84005 324.92747,306.88004 322.3675,313.11999 C 320.92747,316.32003 319.88747,319.44003 319.2475,322.47999 C 318.60747,325.36002 318.12747,328.80002 317.8075,332.79999 L 361.2475,332.79999 L 361.2475,353.67999 L 294.7675,353.67999 C 294.9275,343.76 295.56749,334.80001 296.6875,326.79999 C 297.80749,318.64003 299.64749,310.88004 302.2075,303.51999 C 304.92749,296.00005 308.44748,288.56006 312.7675,281.19999 C 317.08747,273.84007 322.52747,265.84008 329.0875,257.19999 C 334.52746,249.8401 338.20745,244.0001 340.1275,239.67999 C 342.20745,235.36011 343.24745,231.20012 343.2475,227.19999 C 343.24745,221.92012 342.04745,217.84013 339.6475,214.95999 C 337.24745,211.92013 333.96746,210.40014 329.8075,210.39999 C 325.80746,210.40014 322.52747,211.68013 319.9675,214.23999 C 317.40747,216.64013 315.96747,219.84013 315.6475,223.83999 L 294.7675,223.83999 C 295.4075,213.92013 298.84749,205.84014 305.0875,199.59999 C 311.48748,193.20015 319.72747,190.00016 329.8075,189.99999 C 334.76746,190.00016 339.32745,190.96016 343.4875,192.87999 C 347.80744,194.64015 351.48744,197.20015 354.5275,200.55999 C 357.56743,203.76014 359.88743,207.68014 361.4875,212.31999 C 363.24743,216.80013 364.12743,221.76012 364.1275,227.19999"
       style="font-size:240px;font-style:normal;font-variant:normal;font-weight:normal;font-stretch:normal;text-align:center;line-height:100%;writing-mode:lr-tb;text-anchor:middle;fill-opacity:1;fill-rule:evenodd;stroke:none;font-family:Roadgeek 2005 Series B"
       id="number" />
  </g>
</svg>