<svg xmlns="http://www.w3.org/2000/svg" xmlns:xlink="http://www.w3.org/1999/xlink" width="1680" height="1601"><g transform="translate(20 20)"><path d="M0 0h1760v1360H0z" fill="#fff"/><path d="M60 125c0-2.76 2.24-5 5-5h30c2.76 0 5 2.24 5 5v410c0 2.76-2.24 5-5 5H65c-2.76 0-5-2.24-5-5zM319 145c0-2.76 2.24-5 5-5h30c2.76 0 5 2.24 5 5v1350c0 2.76-2.24 5-5 5h-30c-2.76 0-5-2.24-5-5z" stroke="#666" stroke-width="2" fill="#fff"/><path d="M100 170h219" stroke="#999" stroke-width="2" fill="none"/><path d="M319 170l-14.27 4.64v-9.28z" fill="#999"/><path d="M319 168.95v2.1L303.73 176v-12zm-13.27 4.3l10.03-3.25-10.03-3.26z" fill="#999"/><use xlink:href="#a" transform="matrix(1,0,0,1,130.82499999999928,144.40000000000003) translate(0.0049999999999954525 14.4)"/><path d="M339 245c0-2.76 2.24-5 5-5h30c2.76 0 5 2.24 5 5v290c0 2.76-2.24 5-5 5h-30c-2.76 0-5-2.24-5-5z" stroke="#666" stroke-width="2" fill="#fff"/><path d="M359 192.33h55c2.76 0 5 2.24 5 5v65c0 2.76-2.24 5-5 5h-35" stroke="#999" stroke-width="2" fill="none"/><path d="M393.27 271.97L379 267.33l14.27-4.63z" fill="#999"/><path d="M394.27 273.35L379 268.38v-2.1l15.27-4.96zm-12.03-6.02l10.03 3.26v-6.53z" fill="#999"/><use xlink:href="#b" transform="matrix(1,0,0,1,427,209.0333333333333) translate(0.0049999999999954525 14.4)"/><use xlink:href="#c" transform="matrix(1,0,0,1,427,209.0333333333333) translate(145.70499999999998 14.4)"/><path d="M379 287.33h35c2.76 0 5 2.24 5 5v38c0 2.76-2.24 5-5 5h-35" stroke="#999" stroke-width="2" fill="none"/><path d="M393.27 339.97L379 335.33l14.27-4.63z" fill="#999"/><path d="M394.27 341.35L379 336.38v-2.1l15.27-4.96zm-12.03-6.02l10.03 3.26v-6.53z" fill="#999"/><use xlink:href="#d" transform="matrix(1,0,0,1,426.99999999999994,278.93333333333334) translate(10.180000000000007 14.4)"/><use xlink:href="#e" transform="matrix(1,0,0,1,426.99999999999994,278.93333333333334) translate(25.180000000000007 14.4)"/><use xlink:href="#f" transform="matrix(1,0,0,1,426.99999999999994,278.93333333333334) translate(89.13000000000001 14.4)"/><use xlink:href="#g" transform="matrix(1,0,0,1,426.99999999999994,278.93333333333334) translate(129.38 14.4)"/><use xlink:href="#h" transform="matrix(1,0,0,1,426.99999999999994,278.93333333333334) translate(153.38 14.4)"/><use xlink:href="#i" transform="matrix(1,0,0,1,426.99999999999994,278.93333333333334) translate(206.28 14.4)"/><use xlink:href="#j" transform="matrix(1,0,0,1,426.99999999999994,278.93333333333334) translate(13.405000000000001 36)"/><use xlink:href="#k" transform="matrix(1,0,0,1,426.99999999999994,278.93333333333334) translate(74.25500000000001 36)"/><use xlink:href="#l" transform="matrix(1,0,0,1,426.99999999999994,278.93333333333334) translate(139.15500000000003 36)"/><use xlink:href="#m" transform="matrix(1,0,0,1,426.99999999999994,278.93333333333334) translate(203.055 36)"/><use xlink:href="#j" transform="matrix(1,0,0,1,426.99999999999994,278.93333333333334) translate(0.0049999999999954525 57.6)"/><use xlink:href="#n" transform="matrix(1,0,0,1,426.99999999999994,278.93333333333334) translate(60.855000000000004 57.6)"/><use xlink:href="#o" transform="matrix(1,0,0,1,426.99999999999994,278.93333333333334) translate(145.705 57.6)"/><use xlink:href="#p" transform="matrix(1,0,0,1,426.99999999999994,278.93333333333334) translate(188.60500000000002 57.6)"/><use xlink:href="#q" transform="matrix(1,0,0,1,426.99999999999994,278.93333333333334) translate(231.455 57.6)"/><path d="M359 425c0-2.76 2.24-5 5-5h30c2.76 0 5 2.24 5 5v70c0 2.76-2.24 5-5 5h-30c-2.76 0-5-2.24-5-5z" stroke="#666" stroke-width="2" fill="#fff"/><path d="M379 362h55c2.76 0 5 2.24 5 5v66c0 2.76-2.24 5-5 5h-35" stroke="#999" stroke-width="2" fill="none"/><path d="M413.27 442.64L399 438l14.27-4.64z" fill="#999"/><path d="M414.27 444L399 439.06v-2.1l15.27-4.96zm-12.03-6l10.03 3.26v-6.52z" fill="#999"/><use xlink:href="#r" transform="matrix(1,0,0,1,447,379.20000000000005) translate(0.005000000000002558 14.4)"/><path d="M399 464.67h400" stroke="#999" stroke-width="2" fill="none"/><path d="M799 464.67l-14.27 4.63v-9.27z" fill="#999"/><path d="M799 463.62v2.1l-15.27 4.96v-12.03zm-13.27 4.3l10.03-3.25-10.03-3.26z" fill="#999"/><use xlink:href="#s" transform="matrix(1,0,0,1,504.025,439.0666666666667) translate(0.0049999999999954525 14.4)"/><use xlink:href="#t" transform="matrix(1,0,0,1,504.025,439.0666666666667) translate(139.705 14.4)"/><path d="M799 445c0-2.76 2.24-5 5-5h30c2.76 0 5 2.24 5 5v170c0 2.76-2.24 5-5 5h-30c-2.76 0-5-2.24-5-5z" stroke="#666" stroke-width="2" fill="#fff"/><path d="M820 545c0-2.76 2.24-5 5-5h30c2.76 0 5 2.24 5 5v50c0 2.76-2.24 5-5 5h-30c-2.76 0-5-2.24-5-5z" stroke="#666" stroke-width="2" fill="#fff"/><path d="M839 483.33h56c2.76 0 5 2.24 5 5v63.34c0 2.76-2.24 5-5 5h-35" stroke="#999" stroke-width="2" fill="none"/><path d="M874.27 561.3L860 556.67l14.27-4.64z" fill="#999"/><path d="M875.27 562.68L860 557.72v-2.1l15.27-4.97zm-12.03-6l10.03 3.25v-6.52z" fill="#999"/><use xlink:href="#d" transform="matrix(1,0,0,1,908,466.30000000000007) translate(35.40499999999999 14.4)"/><use xlink:href="#u" transform="matrix(1,0,0,1,908,466.30000000000007) translate(50.40499999999999 14.4)"/><use xlink:href="#v" transform="matrix(1,0,0,1,908,466.30000000000007) translate(100.35499999999999 14.4)"/><use xlink:href="#w" transform="matrix(1,0,0,1,908,466.30000000000007) translate(169.35499999999996 14.4)"/><use xlink:href="#x" transform="matrix(1,0,0,1,908,466.30000000000007) translate(184.35499999999996 14.4)"/><use xlink:href="#y" transform="matrix(1,0,0,1,908,466.30000000000007) translate(40.02999999999999 36)"/><use xlink:href="#z" transform="matrix(1,0,0,1,908,466.30000000000007) translate(78.92999999999999 36)"/><use xlink:href="#A" transform="matrix(1,0,0,1,908,466.30000000000007) translate(146.73 36)"/><use xlink:href="#B" transform="matrix(1,0,0,1,908,466.30000000000007) translate(202.63 36)"/><use xlink:href="#C" transform="matrix(1,0,0,1,908,466.30000000000007) translate(0.0049999999999954525 57.6)"/><use xlink:href="#D" transform="matrix(1,0,0,1,908,466.30000000000007) translate(5.0049999999999955 57.6)"/><use xlink:href="#E" transform="matrix(1,0,0,1,908,466.30000000000007) translate(111.855 57.6)"/><use xlink:href="#F" transform="matrix(1,0,0,1,908,466.30000000000007) translate(202.805 57.6)"/><use xlink:href="#G" transform="matrix(1,0,0,1,908,466.30000000000007) translate(216.805 57.6)"/><use xlink:href="#H" transform="matrix(1,0,0,1,908,466.30000000000007) translate(17.62999999999998 79.20000000000002)"/><use xlink:href="#I" transform="matrix(1,0,0,1,908,466.30000000000007) translate(90.42999999999999 79.20000000000002)"/><use xlink:href="#J" transform="matrix(1,0,0,1,908,466.30000000000007) translate(109.38 79.20000000000002)"/><use xlink:href="#K" transform="matrix(1,0,0,1,908,466.30000000000007) translate(193.18 79.20000000000002)"/><use xlink:href="#L" transform="matrix(1,0,0,1,908,466.30000000000007) translate(236.07999999999998 79.20000000000002)"/><path d="M860 579.33h35c2.76 0 5 2.24 5 5V637c0 2.76-2.24 5-5 5H359" stroke="#999" stroke-width="2" fill="none"/><path d="M373.27 646.64L359 642l14.27-4.64z" fill="#999"/><path d="M374.27 648L359 643.06v-2.1l15.27-4.96zm-12.03-6l10.03 3.26v-6.52z" fill="#999"/><use xlink:href="#M" transform="matrix(1,0,0,1,690.4611009772898,646.0000000000001) translate(0.0049999999999954525 14.4)"/><path d="M339 725c0-2.76 2.24-5 5-5h30c2.76 0 5 2.24 5 5v750c0 2.76-2.24 5-5 5h-30c-2.76 0-5-2.24-5-5z" stroke="#666" stroke-width="2" fill="#fff"/><path d="M359 674h55c2.76 0 5 2.24 5 5v55.33c0 2.76-2.24 5-5 5h-35" stroke="#999" stroke-width="2" fill="none"/><path d="M393.27 743.97L379 739.33l14.27-4.63z" fill="#999"/><path d="M394.27 745.35L379 740.38v-2.1l15.27-4.96zm-12.03-6.02l10.03 3.26v-6.53z" fill="#999"/><use xlink:href="#N" transform="matrix(1,0,0,1,427.0000000000001,708.4000000000001) translate(0.0049999999999954525 14.4)"/><use xlink:href="#O" transform="matrix(1,0,0,1,427.0000000000001,708.4000000000001) translate(93.855 14.4)"/><use xlink:href="#P" transform="matrix(1,0,0,1,427.0000000000001,708.4000000000001) translate(114.355 14.4)"/><use xlink:href="#Q" transform="matrix(1,0,0,1,427.0000000000001,708.4000000000001) translate(309.955 14.4)"/><use xlink:href="#R" transform="matrix(1,0,0,1,427.0000000000001,708.4000000000001) translate(353.955 14.4)"/><use xlink:href="#S" transform="matrix(1,0,0,1,427.0000000000001,708.4000000000001) translate(65.70500000000001 36)"/><use xlink:href="#T" transform="matrix(1,0,0,1,427.0000000000001,708.4000000000001) translate(161.65500000000003 36)"/><use xlink:href="#U" transform="matrix(1,0,0,1,427.0000000000001,708.4000000000001) translate(234.455 36)"/><use xlink:href="#J" transform="matrix(1,0,0,1,427.0000000000001,708.4000000000001) translate(272.405 36)"/><use xlink:href="#V" transform="matrix(1,0,0,1,427.0000000000001,708.4000000000001) translate(356.20500000000004 36)"/><path d="M359 805c0-2.76 2.24-5 5-5h30c2.76 0 5 2.24 5 5v650c0 2.76-2.24 5-5 5h-30c-2.76 0-5-2.24-5-5z" stroke="#666" stroke-width="2" fill="#fff"/><path d="M379 760.67h39.67c.18 0 .33-.15.33-.34 0-.18.15-.33.33-.33H434c2.76 0 5 2.24 5 5v48c0 2.76-2.24 5-5 5h-35" stroke="#999" stroke-width="2" fill="none"/><path d="M413.27 822.64L399 818l14.27-4.64z" fill="#999"/><path d="M414.27 824L399 819.06v-2.1l15.27-4.96zm-12.03-6l10.03 3.26v-6.52z" fill="#999"/><use xlink:href="#W" transform="matrix(1,0,0,1,447,768.1920702887314) translate(0.0049999999999954525 14.4)"/><path d="M399 839.33h35c2.76 0 5 2.24 5 5V853c0 2.76-2.24 5-5 5h-35" stroke="#999" stroke-width="2" fill="none"/><path d="M413.27 862.64L399 858l14.27-4.64z" fill="#999"/><path d="M414.27 864L399 859.06v-2.1l15.27-4.96zm-12.03-6l10.03 3.26v-6.52z" fill="#999"/><use xlink:href="#X" transform="matrix(1,0,0,1,447,837.8666666666668) translate(0.005000000000002558 14.4)"/><use xlink:href="#Y" transform="matrix(1,0,0,1,447,837.8666666666668) translate(5.005000000000003 14.4)"/><path d="M399 879.33h781" stroke="#999" stroke-width="2" fill="none"/><path d="M1180 879.33l-14.27 4.64v-9.27z" fill="#999"/><path d="M1180 878.28v2.1l-15.27 4.97v-12.03zm-13.27 4.3l10.03-3.25-10.03-3.26z" fill="#999"/><use xlink:href="#Z" transform="matrix(1,0,0,1,839.6569758224338,853.7333333333336) translate(0.005000000000002558 14.4)"/><use xlink:href="#O" transform="matrix(1,0,0,1,839.6569758224338,853.7333333333336) translate(45.955000000000005 14.4)"/><use xlink:href="#aa" transform="matrix(1,0,0,1,839.6569758224338,853.7333333333336) translate(66.45500000000001 14.4)"/><path d="M1180 865c0-2.76 2.24-5 5-5h30c2.76 0 5 2.24 5 5v50c0 2.76-2.24 5-5 5h-30c-2.76 0-5-2.24-5-5zM379 945c0-2.76 2.24-5 5-5h30c2.76 0 5 2.24 5 5v490c0 2.76-2.24 5-5 5h-30c-2.76 0-5-2.24-5-5z" stroke="#666" stroke-width="2" fill="#fff"/><path d="M399 900.67h39.67c.18 0 .33-.15.33-.34 0-.18.15-.33.33-.33H454c2.76 0 5 2.24 5 5v54.67c0 2.76-2.24 5-5 5h-35" stroke="#999" stroke-width="2" fill="none"/><path d="M433.27 969.3L419 964.67l14.27-4.64z" fill="#999"/><path d="M434.27 970.68L419 965.72v-2.1l15.27-4.97zm-12.03-6l10.03 3.25v-6.52z" fill="#999"/><use xlink:href="#ab" transform="matrix(1,0,0,1,466.9999999999999,948.5333333333335) translate(0.0049999999999954525 14.4)"/><use xlink:href="#O" transform="matrix(1,0,0,1,466.9999999999999,948.5333333333335) translate(96.905 14.4)"/><use xlink:href="#ac" transform="matrix(1,0,0,1,466.9999999999999,948.5333333333335) translate(117.405 14.4)"/><use xlink:href="#z" transform="matrix(1,0,0,1,466.9999999999999,948.5333333333335) translate(294.05499999999995 14.4)"/><use xlink:href="#ad" transform="matrix(1,0,0,1,466.9999999999999,948.5333333333335) translate(361.85499999999996 14.4)"/><path d="M399 1045c0-2.76 2.24-5 5-5h30c2.76 0 5 2.24 5 5v370c0 2.76-2.24 5-5 5h-30c-2.76 0-5-2.24-5-5z" stroke="#666" stroke-width="2" fill="#fff"/><path d="M419 987.33h55c2.76 0 5 2.24 5 5v58c0 2.76-2.24 5-5 5h-35" stroke="#999" stroke-width="2" fill="none"/><path d="M453.27 1059.97l-14.27-4.64 14.27-4.63z" fill="#999"/><path d="M454.27 1061.35l-15.27-4.97v-2.1l15.27-4.96zm-12.03-6.02l10.03 3.26v-6.53z" fill="#999"/><use xlink:href="#ae" transform="matrix(1,0,0,1,487,1000.5333333333334) translate(0.0049999999999954525 14.4)"/><path d="M1345 1065c0-2.76 2.24-5 5-5h30c2.76 0 5 2.24 5 5v50c0 2.76-2.24 5-5 5h-30c-2.76 0-5-2.24-5-5z" stroke="#666" stroke-width="2" fill="#fff"/><path d="M439 1078h906" stroke="#999" stroke-width="2" fill="none"/><path d="M1345 1078l-14.27 4.64v-9.28z" fill="#999"/><path d="M1345 1076.95v2.1l-15.27 4.96v-12zm-13.27 4.3l10.03-3.25-10.03-3.26z" fill="#999"/><use xlink:href="#af" transform="matrix(1,0,0,1,888.2045402951192,1052.4) translate(0.0049999999999954525 14.4)"/><path d="M419 1145c0-2.76 2.24-5 5-5h30c2.76 0 5 2.24 5 5v250c0 2.76-2.24 5-5 5h-30c-2.76 0-5-2.24-5-5z" stroke="#666" stroke-width="2" fill="#fff"/><path d="M439 1098h55c2.76 0 5 2.24 5 5v48.67c0 2.76-2.24 5-5 5h-35" stroke="#999" stroke-width="2" fill="none"/><path d="M473.27 1161.3l-14.27-4.63 14.27-4.64z" fill="#999"/><path d="M474.27 1162.68l-15.27-4.96v-2.1l15.27-4.97zm-12.03-6l10.03 3.25v-6.52z" fill="#999"/><use xlink:href="#ag" transform="matrix(1,0,0,1,507,1106.5333333333335) translate(0.0049999999999954525 14.4)"/><use xlink:href="#ah" transform="matrix(1,0,0,1,507,1106.5333333333335) translate(204.75499999999997 14.4)"/><path d="M1511 1185c0-2.76 2.24-5 5-5h30c2.76 0 5 2.24 5 5v50c0 2.76-2.24 5-5 5h-30c-2.76 0-5-2.24-5-5z" stroke="#666" stroke-width="2" fill="#fff"/><path d="M459 1188.67h1052" stroke="#999" stroke-width="2" fill="none"/><path d="M1511 1188.67l-14.27 4.63v-9.27z" fill="#999"/><path d="M1511 1187.62v2.1l-15.27 4.96v-12.03zm-13.27 4.3l10.03-3.25-10.03-3.26z" fill="#999"/><use xlink:href="#ai" transform="matrix(1,0,0,1,944.3543216436415,1163.0666666666668) translate(0.0049999999999954525 14.4)"/><path d="M819 621v618" fill="none"/><path d="M819 621v20.6m0 20.6v41.2m0 20.6v41.2m0 20.6V827m0 20.6v41.2m0 20.6v41.2m0 20.6v41.2m0 20.6v41.2m0 20.6v41.2m0 20.6v41.2m0 20.6v20.6" stroke="#999" stroke-width="4" fill="none"/><path d="M821 621h-4v-1h4z" fill="#999"/><path d="M799 1245c0-2.76 2.24-5 5-5h30c2.76 0 5 2.24 5 5v250c0 2.76-2.24 5-5 5h-30c-2.76 0-5-2.24-5-5z" stroke="#666" stroke-width="2" fill="#fff"/><path d="M459 1256.67h340" stroke="#999" stroke-width="2" fill="none"/><path d="M799 1256.67l-14.27 4.63v-9.27z" fill="#999"/><path d="M799 1255.62v2.1l-15.27 4.96v-12.03zm-13.27 4.3l10.03-3.25-10.03-3.26z" fill="#999"/><use xlink:href="#d" transform="matrix(1,0,0,1,432.35,1231.0666666666668) translate(0.0049999999999954525 14.4)"/><use xlink:href="#aj" transform="matrix(1,0,0,1,432.35,1231.0666666666668) translate(15.004999999999995 14.4)"/><use xlink:href="#ak" transform="matrix(1,0,0,1,432.35,1231.0666666666668) translate(60.905 14.4)"/><use xlink:href="#al" transform="matrix(1,0,0,1,432.35,1231.0666666666668) translate(141.805 14.4)"/><use xlink:href="#am" transform="matrix(1,0,0,1,432.35,1231.0666666666668) translate(213.10500000000002 14.4)"/><use xlink:href="#an" transform="matrix(1,0,0,1,432.35,1231.0666666666668) translate(277.105 14.4)"/><path d="M459 1270h35c2.76 0 5 2.24 5 5v31.33c0 2.76-2.24 5-5 5h-35" stroke="#999" stroke-width="2" fill="none"/><path d="M473.27 1315.97l-14.27-4.64 14.27-4.63z" fill="#999"/><path d="M474.27 1317.35l-15.27-4.97v-2.1l15.27-4.96zm-12.03-6.02l10.03 3.26v-6.53z" fill="#999"/><g><use xlink:href="#d" transform="matrix(1,0,0,1,507,1269.0666666666668) translate(0.9549999999999841 14.4)"/><use xlink:href="#ao" transform="matrix(1,0,0,1,507,1269.0666666666668) translate(15.954999999999984 14.4)"/><use xlink:href="#ap" transform="matrix(1,0,0,1,507,1269.0666666666668) translate(95.90499999999999 14.4)"/><use xlink:href="#aq" transform="matrix(1,0,0,1,507,1269.0666666666668) translate(0.0049999999999954525 36)"/><use xlink:href="#ar" transform="matrix(1,0,0,1,507,1269.0666666666668) translate(14.004999999999995 36)"/><use xlink:href="#o" transform="matrix(1,0,0,1,507,1269.0666666666668) translate(66.905 36)"/><use xlink:href="#as" transform="matrix(1,0,0,1,507,1269.0666666666668) translate(109.805 36)"/></g><path d="M459 1367.33h340" stroke="#999" stroke-width="2" fill="none"/><path d="M799 1367.33l-14.27 4.64v-9.27z" fill="#999"/><path d="M799 1366.28v2.1l-15.27 4.97v-12.03zm-13.27 4.3l10.03-3.25-10.03-3.26z" fill="#999"/><g><use xlink:href="#X" transform="matrix(1,0,0,1,528.35,1341.7333333333333) translate(0.0049999999999954525 14.4)"/><use xlink:href="#at" transform="matrix(1,0,0,1,528.35,1341.7333333333333) translate(5.0049999999999955 14.4)"/><use xlink:href="#au" transform="matrix(1,0,0,1,528.35,1341.7333333333333) translate(144.705 14.4)"/></g><path d="M30 45c0-2.76 2.24-5 5-5h90c2.76 0 5 2.24 5 5v30c0 2.76-2.24 5-5 5H35c-2.76 0-5-2.24-5-5z" stroke="#666" stroke-width="2" fill="#fff"/><g><use xlink:href="#av" transform="matrix(1,0,0,1,30,40) translate(25.505000000000003 24.4)"/></g><path d="M80 120V81" fill="none"/><path d="M80 120v-13m0-13V81" stroke="#999" stroke-width="3" fill="none"/><path d="M81.5 81h-3v-1h3z" fill="#999"/><path d="M289 45c0-2.76 2.24-5 5-5h90c2.76 0 5 2.24 5 5v30c0 2.76-2.24 5-5 5h-90c-2.76 0-5-2.24-5-5z" stroke="#666" stroke-width="2" fill="#fff"/><g><use xlink:href="#aw" transform="matrix(1,0,0,1,289,40) translate(26.505000000000003 24.4)"/></g><path d="M339 139V81" fill="none"/><path d="M339 139v-19.33m0-19.34V81" stroke="#999" stroke-width="3" fill="none"/><path d="M340.5 140h-3v-1h3zM340.5 81h-3v-1h3z" fill="#999"/><path d="M769 45c0-2.76 2.24-5 5-5h90c2.76 0 5 2.24 5 5v30c0 2.76-2.24 5-5 5h-90c-2.76 0-5-2.24-5-5z" stroke="#666" stroke-width="2" fill="#fff"/><g><use xlink:href="#ax" transform="matrix(1,0,0,1,769,40) translate(31.505000000000003 24.4)"/></g><path d="M819 439V81" fill="none"/><path d="M819 439v-14.92m0-14.9v-29.85m0-14.9v-29.85m0-14.9v-29.85m0-14.9v-29.85m0-14.9v-29.85m0-14.9v-29.85m0-14.9v-29.85m0-14.9V81" stroke="#999" stroke-width="3" fill="none"/><path d="M820.5 440h-3v-1h3zM820.5 81h-3v-1h3z" fill="#999"/><path d="M1099 45c0-2.76 2.24-5 5-5h140c2.76 0 5 2.24 5 5v30c0 2.76-2.24 5-5 5h-140c-2.76 0-5-2.24-5-5z" stroke="#666" stroke-width="2" fill="#fff"/><g><use xlink:href="#ay" transform="matrix(1,0,0,1,1099,40) translate(18.10499999999999 24.4)"/></g><path d="M1200 859V475c0-2.76-2.24-5-5-5h-16c-2.76 0-5-2.24-5-5V81" fill="none"/><path d="M1200 859v-14.9m0-14.88v-29.78m0-14.88v-29.78m0-14.9v-29.77m0-14.88v-29.78m0-14.88v-29.78m0-14.9v-29.77m0-14.88v-29.78m0-14.88v-29.78m0-14.9v-.94c0-.52-.42-.94-.94-.94h-24.12c-.52 0-.94-.42-.94-.94v-.95m0-14.88v-29.78m0-14.88v-29.78m0-14.9v-29.77m0-14.88v-29.78m0-14.88v-29.78m0-14.9v-29.77m0-14.88v-29.78m0-14.88v-29.78m0-14.9V81" stroke="#999" stroke-width="3" fill="none"/><path d="M1201.5 860h-3v-1h3zM1175.5 81h-3v-1h3z" fill="#999"/><path d="M1290 45c0-2.76 2.24-5 5-5h140c2.76 0 5 2.24 5 5v30c0 2.76-2.24 5-5 5h-140c-2.76 0-5-2.24-5-5z" stroke="#666" stroke-width="2" fill="#fff"/><g><use xlink:href="#az" transform="matrix(1,0,0,1,1290,40) translate(14.604999999999992 24.4)"/></g><path d="M1366.67 1059V570.83c0-.46-.38-.83-.84-.83-.46 0-.83-.37-.83-.83V81" fill="none"/><path d="M1366.67 1059v-14.84m0-14.85v-29.67m0-14.85V955.1m0-14.85v-29.68m0-14.85v-29.68m0-14.85v-29.7m0-14.84v-29.7m0-14.83v-29.7m0-14.83v-29.7m0-14.83v-29.7m0-14.83v-29.7m0-14.83v-13.17c0-.46-.38-.83-.84-.83-.46 0-.83-.37-.83-.83V556m0-14.85v-29.7m0-14.83v-29.7m0-14.83v-29.7m0-14.84v-29.7m0-14.83v-29.7m0-14.84v-29.7m0-14.84v-29.68m0-14.85v-29.68m0-14.85v-29.68m0-14.85V110.7m0-14.86V81" stroke="#999" stroke-width="3" fill="none"/><path d="M1368.17 1060h-3v-1h3zM1366.5 81h-3v-1h3z" fill="#999"/><path d="M1481 45c0-2.76 2.24-5 5-5h149c2.76 0 5 2.24 5 5v30c0 2.76-2.24 5-5 5h-149c-2.76 0-5-2.24-5-5z" stroke="#666" stroke-width="2" fill="#fff"/><g><use xlink:href="#aA" transform="matrix(1,0,0,1,1481,40) translate(27.10499999999999 24.4)"/></g><path d="M1531 1179V80.82" fill="none"/><path d="M1531 1179v-15.25m0-15.25V1118m0-15.26v-30.5m0-15.26v-30.5m0-15.26v-30.5m0-15.25v-30.5m0-15.26v-30.5m0-15.25v-30.5m0-15.25v-30.5m0-15.26v-30.5m0-15.26v-30.5m0-15.25v-30.5m0-15.26V614.66m0-15.25v-30.5m0-15.24v-30.5m0-15.26v-30.5m0-15.26v-30.5m0-15.26v-30.5m0-15.25v-30.5m0-15.26v-30.5m0-15.26v-30.5m0-15.24v-30.5m0-15.26v-30.5m0-15.26v-30.5m0-15.25V80.82" stroke="#999" stroke-width="3" fill="none"/><path d="M1532.5 1180h-3v-1h3zM1532.5 80.83h-3V80h3z" fill="#999"/><path d="M0 5c0-2.76 2.24-5 5-5h230c2.76 0 5 2.24 5 5v50c0 2.76-2.24 5-5 5H5c-2.76 0-5-2.24-5-5z" fill="none"/><g><use xlink:href="#aB" transform="matrix(1,0,0,1,0,0) translate(120 35.4)"/></g><path d="M80 540v80" fill="none"/><path d="M80 540v8.9m0 8.88v17.78m0 8.88v17.78m0 8.9V620" stroke="#999" stroke-width="2" fill="none"/><path d="M1200 920v60" fill="none"/><path d="M1200 920v10m0 10v20m0 10v10" stroke="#999" stroke-width="2" fill="none"/><path d="M1365 1120v50" fill="none"/><path d="M1365 1120v8.33m0 8.34v16.66m0 8.34v8.33" stroke="#999" stroke-width="2" fill="none"/><path d="M1531 1240v40" fill="none"/><path d="M1531 1240v13.33m0 13.34V1280" stroke="#999" stroke-width="2" fill="none"/><path d="M819 1500v70" fill="none"/><path d="M819 1500v11.67m0 11.66v23.34m0 11.66V1570" stroke="#999" stroke-width="2" fill="none"/><path d="M339 1500v60" fill="none"/><path d="M339 1500v10m0 10v20m0 10v10" stroke="#999" stroke-width="2" fill="none"/><defs><path fill="#333" d="M194-70c0 46-34 64-81 66v29H91V-4C42-5 12-27 4-67l30-6c5 28 25 41 57 43v-87c-38-9-76-20-76-67 1-42 33-58 76-59v-23h22v23c45 0 67 20 76 56l-31 6c-5-23-18-35-45-37v78c41 10 81 20 81 70zm-81 41c51 7 71-66 19-77-6-2-12-4-19-6v83zM91-219c-47-6-63 57-18 69 6 2 12 3 18 5v-74" id="aC"/><path fill="#333" d="M87 75C49 33 22-17 22-94c0-76 28-126 65-167h31c-38 41-64 92-64 168S80 34 118 75H87" id="aD"/><path fill="#333" d="M109-170H84l-4-78h32zm-65 0H19l-4-78h33" id="aE"/><path fill="#333" d="M33 0v-38h34V0H33" id="aF"/><path fill="#333" d="M141-36C126-15 110 5 73 4 37 3 15-17 15-53c-1-64 63-63 125-63 3-35-9-54-41-54-24 1-41 7-42 31l-33-3c5-37 33-52 76-52 45 0 72 20 72 64v82c-1 20 7 32 28 27v20c-31 9-61-2-59-35zM48-53c0 20 12 33 32 33 41-3 63-29 60-74-43 2-92-5-92 41" id="aG"/><path fill="#333" d="M85-194c31 0 48 13 60 33l-1-100h32l1 261h-30c-2-10 0-23-3-31C134-8 116 4 85 4 32 4 16-35 15-94c0-66 23-100 70-100zm9 24c-40 0-46 34-46 75 0 40 6 74 45 74 42 0 51-32 51-76 0-42-9-74-50-73" id="aH"/><path fill="#333" d="M16-82v-28h88v28H16" id="aI"/><path fill="#333" d="M115-194c53 0 69 39 70 98 0 66-23 100-70 100C84 3 66-7 56-30L54 0H23l1-261h32v101c10-23 28-34 59-34zm-8 174c40 0 45-34 45-75 0-40-5-75-45-74-42 0-51 32-51 76 0 43 10 73 51 73" id="aJ"/><path fill="#333" d="M100-194c63 0 86 42 84 106H49c0 40 14 67 53 68 26 1 43-12 49-29l28 8c-11 28-37 45-77 45C44 4 14-33 15-96c1-61 26-98 85-98zm52 81c6-60-76-77-97-28-3 7-6 17-6 28h103" id="aK"/><path fill="#333" d="M33-261c38 41 65 92 65 168S71 34 33 75H2C39 34 66-17 66-93S39-220 2-261h31" id="aL"/><path fill="#333" d="M96-169c-40 0-48 33-48 73s9 75 48 75c24 0 41-14 43-38l32 2c-6 37-31 61-74 61-59 0-76-41-82-99-10-93 101-131 147-64 4 7 5 14 7 22l-32 3c-4-21-16-35-41-35" id="aM"/><path fill="#333" d="M24 0v-261h32V0H24" id="aN"/><path fill="#333" d="M24-231v-30h32v30H24zM24 0v-190h32V0H24" id="aO"/><path fill="#333" d="M143 0L79-87 56-68V0H24v-261h32v163l83-92h37l-77 82L181 0h-38" id="aP"/><g id="a"><use transform="matrix(0.05,0,0,0.05,0,0)" xlink:href="#aC"/><use transform="matrix(0.05,0,0,0.05,10,0)" xlink:href="#aD"/><use transform="matrix(0.05,0,0,0.05,15.949999999999998,0)" xlink:href="#aE"/><use transform="matrix(0.05,0,0,0.05,22.3,0)" xlink:href="#aF"/><use transform="matrix(0.05,0,0,0.05,27.3,0)" xlink:href="#aG"/><use transform="matrix(0.05,0,0,0.05,37.3,0)" xlink:href="#aH"/><use transform="matrix(0.05,0,0,0.05,47.3,0)" xlink:href="#aH"/><use transform="matrix(0.05,0,0,0.05,57.29999999999999,0)" xlink:href="#aI"/><use transform="matrix(0.05,0,0,0.05,63.25,0)" xlink:href="#aJ"/><use transform="matrix(0.05,0,0,0.05,73.25,0)" xlink:href="#aK"/><use transform="matrix(0.05,0,0,0.05,83.25,0)" xlink:href="#aH"/><use transform="matrix(0.05,0,0,0.05,93.25,0)" xlink:href="#aE"/><use transform="matrix(0.05,0,0,0.05,99.6,0)" xlink:href="#aL"/><use transform="matrix(0.05,0,0,0.05,105.55000000000001,0)" xlink:href="#aF"/><use transform="matrix(0.05,0,0,0.05,110.55000000000001,0)" xlink:href="#aM"/><use transform="matrix(0.05,0,0,0.05,119.55000000000001,0)" xlink:href="#aN"/><use transform="matrix(0.05,0,0,0.05,123.5,0)" xlink:href="#aO"/><use transform="matrix(0.05,0,0,0.05,127.45,0)" xlink:href="#aM"/><use transform="matrix(0.05,0,0,0.05,136.45,0)" xlink:href="#aP"/><use transform="matrix(0.05,0,0,0.05,145.45,0)" xlink:href="#aD"/><use transform="matrix(0.05,0,0,0.05,151.39999999999998,0)" xlink:href="#aL"/></g><path fill="#333" d="M84 4C-5 8 30-112 23-190h32v120c0 31 7 50 39 49 72-2 45-101 50-169h31l1 190h-30c-1-10 1-25-2-33-11 22-28 36-60 37" id="aQ"/><path fill="#333" d="M160-131c35 5 61 23 61 61C221 17 115-2 30 0v-248c76 3 177-17 177 60 0 33-19 50-47 57zm-97-11c50-1 110 9 110-42 0-47-63-36-110-37v79zm0 115c55-2 124 14 124-45 0-56-70-42-124-44v89" id="aR"/><path fill="#333" d="M232-93c-1 65-40 97-104 97C67 4 28-28 28-90v-158h33c8 89-33 224 67 224 102 0 64-133 71-224h33v155" id="aS"/><path fill="#333" d="M233-177c-1 41-23 64-60 70L243 0h-38l-65-103H63V0H30v-248c88 3 205-21 203 71zM63-129c60-2 137 13 137-47 0-61-80-42-137-45v92" id="aT"/><path fill="#333" d="M30 0v-248h33v221h125V0H30" id="aU"/><path fill="#333" d="M100-194c62-1 85 37 85 99 1 63-27 99-86 99S16-35 15-95c0-66 28-99 85-99zM99-20c44 1 53-31 53-75 0-43-8-75-51-75s-53 32-53 75 10 74 51 75" id="aV"/><path fill="#333" d="M24-231v-30h32v30H24zM-9 49c24 4 33-6 33-30v-209h32V24c2 40-23 58-65 49V49" id="aW"/><path fill="#333" d="M68-38c1 34 0 65-14 84H32c9-13 17-26 17-46H33v-38h35" id="aX"/><g id="b"><use transform="matrix(0.05,0,0,0.05,0,0)" xlink:href="#aJ"/><use transform="matrix(0.05,0,0,0.05,10,0)" xlink:href="#aQ"/><use transform="matrix(0.05,0,0,0.05,20,0)" xlink:href="#aO"/><use transform="matrix(0.05,0,0,0.05,23.95,0)" xlink:href="#aN"/><use transform="matrix(0.05,0,0,0.05,27.899999999999995,0)" xlink:href="#aH"/><use transform="matrix(0.05,0,0,0.05,37.9,0)" xlink:href="#aR"/><use transform="matrix(0.05,0,0,0.05,49.9,0)" xlink:href="#aK"/><use transform="matrix(0.05,0,0,0.05,59.900000000000006,0)" xlink:href="#aH"/><use transform="matrix(0.05,0,0,0.05,69.9,0)" xlink:href="#aS"/><use transform="matrix(0.05,0,0,0.05,82.85000000000001,0)" xlink:href="#aT"/><use transform="matrix(0.05,0,0,0.05,95.80000000000001,0)" xlink:href="#aU"/><use transform="matrix(0.05,0,0,0.05,105.80000000000001,0)" xlink:href="#aD"/><use transform="matrix(0.05,0,0,0.05,111.75,0)" xlink:href="#aV"/><use transform="matrix(0.05,0,0,0.05,121.75,0)" xlink:href="#aJ"/><use transform="matrix(0.05,0,0,0.05,131.75,0)" xlink:href="#aW"/><use transform="matrix(0.05,0,0,0.05,135.7,0)" xlink:href="#aX"/></g><g id="c"><use transform="matrix(0.05,0,0,0.05,0,0)" xlink:href="#aM"/><use transform="matrix(0.05,0,0,0.05,9,0)" xlink:href="#aG"/><use transform="matrix(0.05,0,0,0.05,19,0)" xlink:href="#aN"/><use transform="matrix(0.05,0,0,0.05,22.95,0)" xlink:href="#aN"/><use transform="matrix(0.05,0,0,0.05,26.899999999999995,0)" xlink:href="#aJ"/><use transform="matrix(0.05,0,0,0.05,36.9,0)" xlink:href="#aG"/><use transform="matrix(0.05,0,0,0.05,46.9,0)" xlink:href="#aM"/><use transform="matrix(0.05,0,0,0.05,55.900000000000006,0)" xlink:href="#aP"/><use transform="matrix(0.05,0,0,0.05,64.9,0)" xlink:href="#aL"/></g><path fill="#333" d="M0 4l72-265h28L28 4H0" id="aY"/><g id="d"><use transform="matrix(0.05,0,0,0.05,0,0)" xlink:href="#aY"/><use transform="matrix(0.05,0,0,0.05,5,0)" xlink:href="#aY"/></g><path fill="#333" d="M185-189c-5-48-123-54-124 2 14 75 158 14 163 119 3 78-121 87-175 55-17-10-28-26-33-46l33-7c5 56 141 63 141-1 0-78-155-14-162-118-5-82 145-84 179-34 5 7 8 16 11 25" id="aZ"/><path fill="#333" d="M135-143c-3-34-86-38-87 0 15 53 115 12 119 90S17 21 10-45l28-5c4 36 97 45 98 0-10-56-113-15-118-90-4-57 82-63 122-42 12 7 21 19 24 35" id="ba"/><path fill="#333" d="M59-47c-2 24 18 29 38 22v24C64 9 27 4 27-40v-127H5v-23h24l9-43h21v43h35v23H59v120" id="bb"/><path fill="#333" d="M108 0H70L1-190h34L89-25l56-165h34" id="bc"/><g id="e"><use transform="matrix(0.05,0,0,0.05,0,0)" xlink:href="#aZ"/><use transform="matrix(0.05,0,0,0.05,12,0)" xlink:href="#aK"/><use transform="matrix(0.05,0,0,0.05,22,0)" xlink:href="#ba"/><use transform="matrix(0.05,0,0,0.05,31,0)" xlink:href="#bb"/><use transform="matrix(0.05,0,0,0.05,36,0)" xlink:href="#aG"/><use transform="matrix(0.05,0,0,0.05,46,0)" xlink:href="#bc"/><use transform="matrix(0.05,0,0,0.05,55,0)" xlink:href="#aO"/></g><g id="f"><use transform="matrix(0.05,0,0,0.05,0,0)" xlink:href="#aS"/><use transform="matrix(0.05,0,0,0.05,12.950000000000001,0)" xlink:href="#aT"/><use transform="matrix(0.05,0,0,0.05,25.900000000000002,0)" xlink:href="#aU"/></g><path fill="#333" d="M9 0v-24l116-142H16v-24h144v24L44-24h123V0H9" id="bd"/><g id="g"><use transform="matrix(0.05,0,0,0.05,0,0)" xlink:href="#bd"/><use transform="matrix(0.05,0,0,0.05,9,0)" xlink:href="#aG"/></g><path fill="#333" d="M115-194c55 1 70 41 70 98S169 2 115 4C84 4 66-9 55-30l1 105H24l-1-265h31l2 30c10-21 28-34 59-34zm-8 174c40 0 45-34 45-75s-6-73-45-74c-42 0-51 32-51 76 0 43 10 73 51 73" id="be"/><path fill="#333" d="M114-163C36-179 61-72 57 0H25l-1-190h30c1 12-1 29 2 39 6-27 23-49 58-41v29" id="bf"/><g id="h"><use transform="matrix(0.05,0,0,0.05,0,0)" xlink:href="#be"/><use transform="matrix(0.05,0,0,0.05,10,0)" xlink:href="#bf"/><use transform="matrix(0.05,0,0,0.05,15.949999999999998,0)" xlink:href="#aO"/><use transform="matrix(0.05,0,0,0.05,19.9,0)" xlink:href="#aP"/><use transform="matrix(0.05,0,0,0.05,28.899999999999995,0)" xlink:href="#aG"/><use transform="matrix(0.05,0,0,0.05,38.9,0)" xlink:href="#bd"/></g><path fill="#333" d="M33-154v-36h34v36H33zM33 0v-36h34V0H33" id="bg"/><g id="i"><use transform="matrix(0.05,0,0,0.05,0,0)" xlink:href="#be"/><use transform="matrix(0.05,0,0,0.05,10,0)" xlink:href="#aV"/><use transform="matrix(0.05,0,0,0.05,20,0)" xlink:href="#ba"/><use transform="matrix(0.05,0,0,0.05,29,0)" xlink:href="#bb"/><use transform="matrix(0.05,0,0,0.05,34,0)" xlink:href="#aK"/><use transform="matrix(0.05,0,0,0.05,44,0)" xlink:href="#aN"/><use transform="matrix(0.05,0,0,0.05,47.95,0)" xlink:href="#aW"/><use transform="matrix(0.05,0,0,0.05,51.900000000000006,0)" xlink:href="#aK"/><use transform="matrix(0.05,0,0,0.05,61.900000000000006,0)" xlink:href="#bg"/></g><g id="j"><use transform="matrix(0.05,0,0,0.05,0,0)" xlink:href="#be"/><use transform="matrix(0.05,0,0,0.05,10,0)" xlink:href="#bf"/><use transform="matrix(0.05,0,0,0.05,15.949999999999998,0)" xlink:href="#aK"/><use transform="matrix(0.05,0,0,0.05,25.950000000000003,0)" xlink:href="#aJ"/><use transform="matrix(0.05,0,0,0.05,35.95,0)" xlink:href="#aK"/><use transform="matrix(0.05,0,0,0.05,45.95,0)" xlink:href="#bf"/><use transform="matrix(0.05,0,0,0.05,51.900000000000006,0)" xlink:href="#aO"/></g><path fill="#333" d="M135-143c-3-34-86-38-87 0 15 53 115 12 119 90S17 21 10-45l28-5c4 36 97 45 98 0-10-56-113-15-118-90-4-57 82-63 122-42 12 7 21 19 24 35zm-28-68H71c-13-18-31-30-41-51 32-2 39 20 59 30 19-10 26-32 57-30-9 21-27 33-39 51" id="bh"/><g id="k"><use transform="matrix(0.05,0,0,0.05,0,0)" xlink:href="#bh"/><use transform="matrix(0.05,0,0,0.05,9,0)" xlink:href="#bb"/><use transform="matrix(0.05,0,0,0.05,14,0)" xlink:href="#aK"/><use transform="matrix(0.05,0,0,0.05,24,0)" xlink:href="#bc"/><use transform="matrix(0.05,0,0,0.05,33,0)" xlink:href="#aO"/><use transform="matrix(0.05,0,0,0.05,36.95,0)" xlink:href="#aN"/><use transform="matrix(0.05,0,0,0.05,40.900000000000006,0)" xlink:href="#aP"/><use transform="matrix(0.05,0,0,0.05,49.900000000000006,0)" xlink:href="#aV"/></g><path fill="#333" d="M117-194c89-4 53 116 60 194h-32v-121c0-31-8-49-39-48C34-167 62-67 57 0H25l-1-190h30c1 10-1 24 2 32 11-22 29-35 61-36" id="bi"/><g id="l"><use transform="matrix(0.05,0,0,0.05,0,0)" xlink:href="#aO"/><use transform="matrix(0.05,0,0,0.05,3.95,0)" xlink:href="#bd"/><use transform="matrix(0.05,0,0,0.05,12.949999999999998,0)" xlink:href="#aJ"/><use transform="matrix(0.05,0,0,0.05,22.95,0)" xlink:href="#bf"/><use transform="matrix(0.05,0,0,0.05,28.899999999999995,0)" xlink:href="#aG"/><use transform="matrix(0.05,0,0,0.05,38.9,0)" xlink:href="#bi"/><use transform="matrix(0.05,0,0,0.05,48.9,0)" xlink:href="#aK"/></g><g id="m"><use transform="matrix(0.05,0,0,0.05,0,0)" xlink:href="#be"/><use transform="matrix(0.05,0,0,0.05,10,0)" xlink:href="#aV"/><use transform="matrix(0.05,0,0,0.05,20,0)" xlink:href="#ba"/><use transform="matrix(0.05,0,0,0.05,29,0)" xlink:href="#bb"/><use transform="matrix(0.05,0,0,0.05,34,0)" xlink:href="#aK"/><use transform="matrix(0.05,0,0,0.05,44,0)" xlink:href="#aN"/><use transform="matrix(0.05,0,0,0.05,47.95,0)" xlink:href="#aW"/><use transform="matrix(0.05,0,0,0.05,51.900000000000006,0)" xlink:href="#aK"/><use transform="matrix(0.05,0,0,0.05,61.900000000000006,0)" xlink:href="#aX"/></g><path fill="#333" d="M210-169c-67 3-38 105-44 169h-31v-121c0-29-5-50-35-48C34-165 62-65 56 0H25l-1-190h30c1 10-1 24 2 32 10-44 99-50 107 0 11-21 27-35 58-36 85-2 47 119 55 194h-31v-121c0-29-5-49-35-48" id="bj"/><g id="n"><use transform="matrix(0.05,0,0,0.05,0,0)" xlink:href="#bj"/><use transform="matrix(0.05,0,0,0.05,14.950000000000001,0)" xlink:href="#aV"/><use transform="matrix(0.05,0,0,0.05,24.950000000000003,0)" xlink:href="#bf"/><use transform="matrix(0.05,0,0,0.05,30.900000000000002,0)" xlink:href="#aK"/><use transform="matrix(0.05,0,0,0.05,40.900000000000006,0)" xlink:href="#aJ"/><use transform="matrix(0.05,0,0,0.05,50.900000000000006,0)" xlink:href="#aO"/><use transform="matrix(0.05,0,0,0.05,54.85,0)" xlink:href="#bb"/><use transform="matrix(0.05,0,0,0.05,59.85,0)" xlink:href="#bi"/><use transform="matrix(0.05,0,0,0.05,69.85000000000001,0)" xlink:href="#aK"/></g><path fill="#333" d="M30 0v-248h187v28H63v79h144v27H63v87h162V0H30" id="bk"/><path fill="#333" d="M197 0v-115H63V0H30v-248h33v105h134v-105h34V0h-34" id="bl"/><g id="o"><use transform="matrix(0.05,0,0,0.05,0,0)" xlink:href="#bk"/><use transform="matrix(0.05,0,0,0.05,12,0)" xlink:href="#bl"/><use transform="matrix(0.05,0,0,0.05,24.950000000000003,0)" xlink:href="#aT"/></g><path fill="#333" d="M33 0v-248h34V0H33" id="bm"/><path fill="#333" d="M30-248c118-7 216 8 213 122C240-48 200 0 122 0H30v-248zM63-27c89 8 146-16 146-99s-60-101-146-95v194" id="bn"/><g id="p"><use transform="matrix(0.05,0,0,0.05,0,0)" xlink:href="#bm"/><use transform="matrix(0.05,0,0,0.05,5,0)" xlink:href="#bn"/><use transform="matrix(0.05,0,0,0.05,17.950000000000003,0)" xlink:href="#aI"/><use transform="matrix(0.05,0,0,0.05,23.900000000000002,0)" xlink:href="#aW"/><use transform="matrix(0.05,0,0,0.05,27.85,0)" xlink:href="#aK"/></g><g id="q"><use transform="matrix(0.05,0,0,0.05,0,0)" xlink:href="#be"/><use transform="matrix(0.05,0,0,0.05,10,0)" xlink:href="#aV"/><use transform="matrix(0.05,0,0,0.05,20,0)" xlink:href="#ba"/><use transform="matrix(0.05,0,0,0.05,29,0)" xlink:href="#bb"/><use transform="matrix(0.05,0,0,0.05,34,0)" xlink:href="#aK"/><use transform="matrix(0.05,0,0,0.05,44,0)" xlink:href="#aN"/><use transform="matrix(0.05,0,0,0.05,47.95,0)" xlink:href="#aW"/></g><g id="r"><use transform="matrix(0.05,0,0,0.05,0,0)" xlink:href="#aM"/><use transform="matrix(0.05,0,0,0.05,9,0)" xlink:href="#aG"/><use transform="matrix(0.05,0,0,0.05,19,0)" xlink:href="#aN"/><use transform="matrix(0.05,0,0,0.05,22.95,0)" xlink:href="#aN"/><use transform="matrix(0.05,0,0,0.05,26.899999999999995,0)" xlink:href="#aJ"/><use transform="matrix(0.05,0,0,0.05,36.9,0)" xlink:href="#aG"/><use transform="matrix(0.05,0,0,0.05,46.9,0)" xlink:href="#aM"/><use transform="matrix(0.05,0,0,0.05,55.900000000000006,0)" xlink:href="#aP"/><use transform="matrix(0.05,0,0,0.05,64.9,0)" xlink:href="#aD"/><use transform="matrix(0.05,0,0,0.05,70.85000000000001,0)" xlink:href="#aQ"/><use transform="matrix(0.05,0,0,0.05,80.85000000000001,0)" xlink:href="#bf"/><use transform="matrix(0.05,0,0,0.05,86.80000000000001,0)" xlink:href="#aN"/><use transform="matrix(0.05,0,0,0.05,90.75000000000001,0)" xlink:href="#aL"/></g><path fill="#333" d="M206 0h-36l-40-164L89 0H53L-1-190h32L70-26l43-164h34l41 164 42-164h31" id="bo"/><g id="s"><use transform="matrix(0.05,0,0,0.05,0,0)" xlink:href="#bo"/><use transform="matrix(0.05,0,0,0.05,12.950000000000001,0)" xlink:href="#aO"/><use transform="matrix(0.05,0,0,0.05,16.900000000000002,0)" xlink:href="#bi"/><use transform="matrix(0.05,0,0,0.05,26.900000000000002,0)" xlink:href="#aH"/><use transform="matrix(0.05,0,0,0.05,36.900000000000006,0)" xlink:href="#aV"/><use transform="matrix(0.05,0,0,0.05,46.900000000000006,0)" xlink:href="#bo"/><use transform="matrix(0.05,0,0,0.05,58.85,0)" xlink:href="#aF"/><use transform="matrix(0.05,0,0,0.05,63.85,0)" xlink:href="#aV"/><use transform="matrix(0.05,0,0,0.05,73.85000000000001,0)" xlink:href="#be"/><use transform="matrix(0.05,0,0,0.05,83.85000000000001,0)" xlink:href="#aK"/><use transform="matrix(0.05,0,0,0.05,93.85000000000001,0)" xlink:href="#bi"/><use transform="matrix(0.05,0,0,0.05,103.85000000000001,0)" xlink:href="#aD"/><use transform="matrix(0.05,0,0,0.05,109.80000000000001,0)" xlink:href="#aQ"/><use transform="matrix(0.05,0,0,0.05,119.80000000000001,0)" xlink:href="#bf"/><use transform="matrix(0.05,0,0,0.05,125.75,0)" xlink:href="#aN"/><use transform="matrix(0.05,0,0,0.05,129.70000000000002,0)" xlink:href="#aX"/></g><path fill="#333" d="M-5 72V49h209v23H-5" id="bp"/><path fill="#333" d="M101-234c-31-9-42 10-38 44h38v23H63V0H32v-167H5v-23h27c-7-52 17-82 69-68v24" id="bq"/><g id="t"><use transform="matrix(0.05,0,0,0.05,0,0)" xlink:href="#aE"/><use transform="matrix(0.05,0,0,0.05,6.3500000000000005,0)" xlink:href="#bp"/><use transform="matrix(0.05,0,0,0.05,16.35,0)" xlink:href="#ba"/><use transform="matrix(0.05,0,0,0.05,25.35,0)" xlink:href="#aK"/><use transform="matrix(0.05,0,0,0.05,35.35,0)" xlink:href="#aN"/><use transform="matrix(0.05,0,0,0.05,39.300000000000004,0)" xlink:href="#bq"/><use transform="matrix(0.05,0,0,0.05,44.300000000000004,0)" xlink:href="#aL"/></g><path fill="#333" d="M137 0h-34L2-248h35l83 218 83-218h36" id="br"/><g id="u"><use transform="matrix(0.05,0,0,0.05,0,0)" xlink:href="#br"/><use transform="matrix(0.05,0,0,0.05,12,0)" xlink:href="#bi"/><use transform="matrix(0.05,0,0,0.05,22,0)" xlink:href="#aK"/><use transform="matrix(0.05,0,0,0.05,32,0)" xlink:href="#ba"/><use transform="matrix(0.05,0,0,0.05,41,0)" xlink:href="#aO"/></g><g id="v"><use transform="matrix(0.05,0,0,0.05,0,0)" xlink:href="#be"/><use transform="matrix(0.05,0,0,0.05,10,0)" xlink:href="#aV"/><use transform="matrix(0.05,0,0,0.05,20,0)" xlink:href="#aH"/><use transform="matrix(0.05,0,0,0.05,30,0)" xlink:href="#aG"/><use transform="matrix(0.05,0,0,0.05,40,0)" xlink:href="#bb"/><use transform="matrix(0.05,0,0,0.05,45,0)" xlink:href="#aP"/><use transform="matrix(0.05,0,0,0.05,54,0)" xlink:href="#aK"/></g><use transform="matrix(0.05,0,0,0.05,0,0)" xlink:href="#aV" id="w"/><g id="x"><use transform="matrix(0.05,0,0,0.05,0,0)" xlink:href="#aJ"/><use transform="matrix(0.05,0,0,0.05,10,0)" xlink:href="#aV"/><use transform="matrix(0.05,0,0,0.05,20,0)" xlink:href="#aN"/><use transform="matrix(0.05,0,0,0.05,23.95,0)" xlink:href="#bi"/><use transform="matrix(0.05,0,0,0.05,33.95,0)" xlink:href="#aO"/><use transform="matrix(0.05,0,0,0.05,37.900000000000006,0)" xlink:href="#aP"/><use transform="matrix(0.05,0,0,0.05,46.900000000000006,0)" xlink:href="#aQ"/><use transform="matrix(0.05,0,0,0.05,56.900000000000006,0)" xlink:href="#bg"/></g><g id="y"><use transform="matrix(0.05,0,0,0.05,0,0)" xlink:href="#aO"/><use transform="matrix(0.05,0,0,0.05,3.95,0)" xlink:href="#bj"/><use transform="matrix(0.05,0,0,0.05,18.900000000000002,0)" xlink:href="#aK"/><use transform="matrix(0.05,0,0,0.05,28.900000000000002,0)" xlink:href="#aX"/></g><g id="z"><use transform="matrix(0.05,0,0,0.05,0,0)" xlink:href="#be"/><use transform="matrix(0.05,0,0,0.05,10,0)" xlink:href="#bf"/><use transform="matrix(0.05,0,0,0.05,15.949999999999998,0)" xlink:href="#aO"/><use transform="matrix(0.05,0,0,0.05,19.9,0)" xlink:href="#aO"/><use transform="matrix(0.05,0,0,0.05,23.849999999999998,0)" xlink:href="#bj"/><use transform="matrix(0.05,0,0,0.05,38.8,0)" xlink:href="#aK"/><use transform="matrix(0.05,0,0,0.05,48.8,0)" xlink:href="#aP"/><use transform="matrix(0.05,0,0,0.05,57.79999999999999,0)" xlink:href="#aX"/></g><g id="A"><use transform="matrix(0.05,0,0,0.05,0,0)" xlink:href="#bc"/><use transform="matrix(0.05,0,0,0.05,9,0)" xlink:href="#aO"/><use transform="matrix(0.05,0,0,0.05,12.949999999999998,0)" xlink:href="#bh"/><use transform="matrix(0.05,0,0,0.05,21.95,0)" xlink:href="#aO"/><use transform="matrix(0.05,0,0,0.05,25.899999999999995,0)" xlink:href="#bi"/><use transform="matrix(0.05,0,0,0.05,35.9,0)" xlink:href="#aG"/><use transform="matrix(0.05,0,0,0.05,45.9,0)" xlink:href="#aX"/></g><path fill="#333" d="M9 0v-24l116-142H16v-24h144v24L44-24h123V0H9zm95-211H68c-13-18-31-30-41-51 32-2 39 20 59 30 19-10 26-32 57-30-9 21-27 33-39 51" id="bs"/><g id="B"><use transform="matrix(0.05,0,0,0.05,0,0)" xlink:href="#bb"/><use transform="matrix(0.05,0,0,0.05,5,0)" xlink:href="#aK"/><use transform="matrix(0.05,0,0,0.05,15,0)" xlink:href="#bs"/><use transform="matrix(0.05,0,0,0.05,24,0)" xlink:href="#aG"/><use transform="matrix(0.05,0,0,0.05,34,0)" xlink:href="#aX"/></g><g id="D"><use transform="matrix(0.05,0,0,0.05,0,0)" xlink:href="#bb"/><use transform="matrix(0.05,0,0,0.05,5,0)" xlink:href="#aK"/><use transform="matrix(0.05,0,0,0.05,15,0)" xlink:href="#bj"/><use transform="matrix(0.05,0,0,0.05,29.950000000000003,0)" xlink:href="#be"/><use transform="matrix(0.05,0,0,0.05,39.95,0)" xlink:href="#aK"/><use transform="matrix(0.05,0,0,0.05,49.95,0)" xlink:href="#bf"/><use transform="matrix(0.05,0,0,0.05,55.900000000000006,0)" xlink:href="#aG"/><use transform="matrix(0.05,0,0,0.05,65.9,0)" xlink:href="#bb"/><use transform="matrix(0.05,0,0,0.05,70.9,0)" xlink:href="#aQ"/><use transform="matrix(0.05,0,0,0.05,80.9,0)" xlink:href="#bf"/><use transform="matrix(0.05,0,0,0.05,86.85000000000001,0)" xlink:href="#aG"/><use transform="matrix(0.05,0,0,0.05,96.85000000000001,0)" xlink:href="#aX"/></g><path fill="#333" d="M96-169c-40 0-48 33-48 73s9 75 48 75c24 0 41-14 43-38l32 2c-6 37-31 61-74 61-59 0-76-41-82-99-10-93 101-131 147-64 4 7 5 14 7 22l-32 3c-4-21-16-35-41-35zm19-42H79c-13-18-31-30-41-51 32-2 39 20 59 30 19-10 26-32 57-30-9 21-27 33-39 51" id="bt"/><g id="E"><use transform="matrix(0.05,0,0,0.05,0,0)" xlink:href="#bi"/><use transform="matrix(0.05,0,0,0.05,10,0)" xlink:href="#aG"/><use transform="matrix(0.05,0,0,0.05,20,0)" xlink:href="#ba"/><use transform="matrix(0.05,0,0,0.05,29,0)" xlink:href="#aO"/><use transform="matrix(0.05,0,0,0.05,32.95,0)" xlink:href="#bt"/><use transform="matrix(0.05,0,0,0.05,41.95,0)" xlink:href="#aK"/><use transform="matrix(0.05,0,0,0.05,51.95,0)" xlink:href="#bi"/><use transform="matrix(0.05,0,0,0.05,61.95,0)" xlink:href="#aV"/><use transform="matrix(0.05,0,0,0.05,71.95,0)" xlink:href="#ba"/><use transform="matrix(0.05,0,0,0.05,80.95,0)" xlink:href="#bb"/></g><use transform="matrix(0.05,0,0,0.05,0,0)" xlink:href="#ba" id="F"/><g id="G"><use transform="matrix(0.05,0,0,0.05,0,0)" xlink:href="#aP"/><use transform="matrix(0.05,0,0,0.05,9,0)" xlink:href="#aO"/><use transform="matrix(0.05,0,0,0.05,12.949999999999998,0)" xlink:href="#ba"/><use transform="matrix(0.05,0,0,0.05,21.95,0)" xlink:href="#aO"/><use transform="matrix(0.05,0,0,0.05,25.899999999999995,0)" xlink:href="#aP"/><use transform="matrix(0.05,0,0,0.05,34.9,0)" xlink:href="#aV"/><use transform="matrix(0.05,0,0,0.05,44.9,0)" xlink:href="#bj"/><use transform="matrix(0.05,0,0,0.05,59.85,0)" xlink:href="#aX"/></g><g id="H"><use transform="matrix(0.05,0,0,0.05,0,0)" xlink:href="#ba"/><use transform="matrix(0.05,0,0,0.05,9,0)" xlink:href="#aO"/><use transform="matrix(0.05,0,0,0.05,12.949999999999998,0)" xlink:href="#ba"/><use transform="matrix(0.05,0,0,0.05,21.95,0)" xlink:href="#bb"/><use transform="matrix(0.05,0,0,0.05,26.950000000000003,0)" xlink:href="#aV"/><use transform="matrix(0.05,0,0,0.05,36.95,0)" xlink:href="#aN"/><use transform="matrix(0.05,0,0,0.05,40.900000000000006,0)" xlink:href="#aO"/><use transform="matrix(0.05,0,0,0.05,44.85000000000001,0)" xlink:href="#bt"/><use transform="matrix(0.05,0,0,0.05,53.85,0)" xlink:href="#bi"/><use transform="matrix(0.05,0,0,0.05,63.85,0)" xlink:href="#aO"/></g><g id="I"><use transform="matrix(0.05,0,0,0.05,0,0)" xlink:href="#aO"/><use transform="matrix(0.05,0,0,0.05,3.95,0)" xlink:href="#bi"/></g><g id="J"><use transform="matrix(0.05,0,0,0.05,0,0)" xlink:href="#aH"/><use transform="matrix(0.05,0,0,0.05,10,0)" xlink:href="#aO"/><use transform="matrix(0.05,0,0,0.05,13.949999999999998,0)" xlink:href="#aG"/><use transform="matrix(0.05,0,0,0.05,23.95,0)" xlink:href="#ba"/><use transform="matrix(0.05,0,0,0.05,32.95,0)" xlink:href="#bb"/><use transform="matrix(0.05,0,0,0.05,37.95,0)" xlink:href="#aV"/><use transform="matrix(0.05,0,0,0.05,47.95,0)" xlink:href="#aN"/><use transform="matrix(0.05,0,0,0.05,51.900000000000006,0)" xlink:href="#aO"/><use transform="matrix(0.05,0,0,0.05,55.85,0)" xlink:href="#bt"/><use transform="matrix(0.05,0,0,0.05,64.85000000000001,0)" xlink:href="#bi"/><use transform="matrix(0.05,0,0,0.05,74.85000000000001,0)" xlink:href="#aO"/></g><g id="K"><use transform="matrix(0.05,0,0,0.05,0,0)" xlink:href="#aP"/><use transform="matrix(0.05,0,0,0.05,9,0)" xlink:href="#bf"/><use transform="matrix(0.05,0,0,0.05,14.949999999999998,0)" xlink:href="#bc"/><use transform="matrix(0.05,0,0,0.05,23.95,0)" xlink:href="#bi"/><use transform="matrix(0.05,0,0,0.05,33.95,0)" xlink:href="#aO"/></g><g id="L"><use transform="matrix(0.05,0,0,0.05,0,0)" xlink:href="#bb"/><use transform="matrix(0.05,0,0,0.05,5,0)" xlink:href="#aN"/><use transform="matrix(0.05,0,0,0.05,8.95,0)" xlink:href="#aG"/><use transform="matrix(0.05,0,0,0.05,18.95,0)" xlink:href="#aP"/></g><path fill="#333" d="M158-156l-14 65h45v19h-49L124 0h-19l15-72H56L41 0H22l15-72H2v-19h39l14-65H11v-19h48l15-71h20l-16 71h64l16-71h19l-16 71h37v19h-40zm-83 0L61-91h63l14-65H75" id="bu"/><g id="M"><use transform="matrix(0.05,0,0,0.05,0,0)" xlink:href="#aC"/><use transform="matrix(0.05,0,0,0.05,10,0)" xlink:href="#aD"/><use transform="matrix(0.05,0,0,0.05,15.949999999999998,0)" xlink:href="#aE"/><use transform="matrix(0.05,0,0,0.05,22.3,0)" xlink:href="#bu"/><use transform="matrix(0.05,0,0,0.05,32.3,0)" xlink:href="#be"/><use transform="matrix(0.05,0,0,0.05,42.3,0)" xlink:href="#aG"/><use transform="matrix(0.05,0,0,0.05,52.29999999999999,0)" xlink:href="#bb"/><use transform="matrix(0.05,0,0,0.05,57.29999999999999,0)" xlink:href="#aO"/><use transform="matrix(0.05,0,0,0.05,61.25,0)" xlink:href="#aK"/><use transform="matrix(0.05,0,0,0.05,71.25,0)" xlink:href="#bi"/><use transform="matrix(0.05,0,0,0.05,81.25,0)" xlink:href="#bb"/><use transform="matrix(0.05,0,0,0.05,86.25,0)" xlink:href="#aI"/><use transform="matrix(0.05,0,0,0.05,92.2,0)" xlink:href="#bf"/><use transform="matrix(0.05,0,0,0.05,98.15,0)" xlink:href="#aK"/><use transform="matrix(0.05,0,0,0.05,108.15,0)" xlink:href="#aM"/><use transform="matrix(0.05,0,0,0.05,117.15,0)" xlink:href="#aV"/><use transform="matrix(0.05,0,0,0.05,127.15,0)" xlink:href="#bf"/><use transform="matrix(0.05,0,0,0.05,133.1,0)" xlink:href="#aH"/><use transform="matrix(0.05,0,0,0.05,143.1,0)" xlink:href="#aE"/><use transform="matrix(0.05,0,0,0.05,149.45,0)" xlink:href="#aL"/><use transform="matrix(0.05,0,0,0.05,155.39999999999998,0)" xlink:href="#aF"/><use transform="matrix(0.05,0,0,0.05,160.39999999999998,0)" xlink:href="#ba"/><use transform="matrix(0.05,0,0,0.05,169.39999999999998,0)" xlink:href="#aQ"/><use transform="matrix(0.05,0,0,0.05,179.39999999999998,0)" xlink:href="#aJ"/><use transform="matrix(0.05,0,0,0.05,189.39999999999998,0)" xlink:href="#bj"/><use transform="matrix(0.05,0,0,0.05,204.34999999999997,0)" xlink:href="#aO"/><use transform="matrix(0.05,0,0,0.05,208.29999999999995,0)" xlink:href="#bb"/><use transform="matrix(0.05,0,0,0.05,213.29999999999995,0)" xlink:href="#aD"/><use transform="matrix(0.05,0,0,0.05,219.24999999999991,0)" xlink:href="#aL"/></g><g id="N"><use transform="matrix(0.05,0,0,0.05,0,0)" xlink:href="#bf"/><use transform="matrix(0.05,0,0,0.05,5.95,0)" xlink:href="#aK"/><use transform="matrix(0.05,0,0,0.05,15.949999999999998,0)" xlink:href="#aM"/><use transform="matrix(0.05,0,0,0.05,24.95,0)" xlink:href="#aV"/><use transform="matrix(0.05,0,0,0.05,34.95,0)" xlink:href="#bf"/><use transform="matrix(0.05,0,0,0.05,40.900000000000006,0)" xlink:href="#aH"/><use transform="matrix(0.05,0,0,0.05,50.900000000000006,0)" xlink:href="#bn"/><use transform="matrix(0.05,0,0,0.05,63.85,0)" xlink:href="#aG"/><use transform="matrix(0.05,0,0,0.05,73.85000000000001,0)" xlink:href="#bb"/><use transform="matrix(0.05,0,0,0.05,78.85000000000001,0)" xlink:href="#aG"/></g><path fill="#333" d="M18-150v-26h174v26H18zm0 90v-26h174v26H18" id="bv"/><g id="O"><use transform="matrix(0.05,0,0,0.05,0,0)" xlink:href="#bg"/><use transform="matrix(0.05,0,0,0.05,5,0)" xlink:href="#bv"/></g><g id="P"><use transform="matrix(0.05,0,0,0.05,0,0)" xlink:href="#aJ"/><use transform="matrix(0.05,0,0,0.05,10,0)" xlink:href="#aQ"/><use transform="matrix(0.05,0,0,0.05,20,0)" xlink:href="#aO"/><use transform="matrix(0.05,0,0,0.05,23.95,0)" xlink:href="#aN"/><use transform="matrix(0.05,0,0,0.05,27.899999999999995,0)" xlink:href="#aH"/><use transform="matrix(0.05,0,0,0.05,37.9,0)" xlink:href="#aT"/><use transform="matrix(0.05,0,0,0.05,50.85,0)" xlink:href="#aK"/><use transform="matrix(0.05,0,0,0.05,60.85,0)" xlink:href="#aM"/><use transform="matrix(0.05,0,0,0.05,69.85,0)" xlink:href="#aV"/><use transform="matrix(0.05,0,0,0.05,79.85,0)" xlink:href="#bf"/><use transform="matrix(0.05,0,0,0.05,85.8,0)" xlink:href="#aH"/><use transform="matrix(0.05,0,0,0.05,95.8,0)" xlink:href="#bn"/><use transform="matrix(0.05,0,0,0.05,108.75,0)" xlink:href="#aG"/><use transform="matrix(0.05,0,0,0.05,118.75,0)" xlink:href="#bb"/><use transform="matrix(0.05,0,0,0.05,123.75,0)" xlink:href="#aG"/><use transform="matrix(0.05,0,0,0.05,133.75,0)" xlink:href="#aD"/><use transform="matrix(0.05,0,0,0.05,139.7,0)" xlink:href="#bc"/><use transform="matrix(0.05,0,0,0.05,148.7,0)" xlink:href="#aO"/><use transform="matrix(0.05,0,0,0.05,152.64999999999998,0)" xlink:href="#bh"/><use transform="matrix(0.05,0,0,0.05,161.64999999999998,0)" xlink:href="#aO"/><use transform="matrix(0.05,0,0,0.05,165.59999999999997,0)" xlink:href="#bi"/><use transform="matrix(0.05,0,0,0.05,175.59999999999997,0)" xlink:href="#aG"/><use transform="matrix(0.05,0,0,0.05,185.59999999999997,0)" xlink:href="#aX"/></g><g id="Q"><use transform="matrix(0.05,0,0,0.05,0,0)" xlink:href="#bb"/><use transform="matrix(0.05,0,0,0.05,5,0)" xlink:href="#aK"/><use transform="matrix(0.05,0,0,0.05,15,0)" xlink:href="#bs"/><use transform="matrix(0.05,0,0,0.05,24,0)" xlink:href="#aG"/><use transform="matrix(0.05,0,0,0.05,34,0)" xlink:href="#aX"/></g><g id="R"><use transform="matrix(0.05,0,0,0.05,0,0)" xlink:href="#bb"/><use transform="matrix(0.05,0,0,0.05,5,0)" xlink:href="#aK"/><use transform="matrix(0.05,0,0,0.05,15,0)" xlink:href="#bj"/><use transform="matrix(0.05,0,0,0.05,29.950000000000003,0)" xlink:href="#be"/><use transform="matrix(0.05,0,0,0.05,39.95,0)" xlink:href="#aK"/><use transform="matrix(0.05,0,0,0.05,49.95,0)" xlink:href="#bf"/><use transform="matrix(0.05,0,0,0.05,55.900000000000006,0)" xlink:href="#aG"/><use transform="matrix(0.05,0,0,0.05,65.9,0)" xlink:href="#bb"/><use transform="matrix(0.05,0,0,0.05,70.9,0)" xlink:href="#aQ"/><use transform="matrix(0.05,0,0,0.05,80.9,0)" xlink:href="#bf"/><use transform="matrix(0.05,0,0,0.05,86.85000000000001,0)" xlink:href="#aG"/><use transform="matrix(0.05,0,0,0.05,96.85000000000001,0)" xlink:href="#aX"/></g><g id="S"><use transform="matrix(0.05,0,0,0.05,0,0)" xlink:href="#bi"/><use transform="matrix(0.05,0,0,0.05,10,0)" xlink:href="#aG"/><use transform="matrix(0.05,0,0,0.05,20,0)" xlink:href="#ba"/><use transform="matrix(0.05,0,0,0.05,29,0)" xlink:href="#aO"/><use transform="matrix(0.05,0,0,0.05,32.95,0)" xlink:href="#bt"/><use transform="matrix(0.05,0,0,0.05,41.95,0)" xlink:href="#aK"/><use transform="matrix(0.05,0,0,0.05,51.95,0)" xlink:href="#bi"/><use transform="matrix(0.05,0,0,0.05,61.95,0)" xlink:href="#aV"/><use transform="matrix(0.05,0,0,0.05,71.95,0)" xlink:href="#ba"/><use transform="matrix(0.05,0,0,0.05,80.95,0)" xlink:href="#bb"/><use transform="matrix(0.05,0,0,0.05,85.95,0)" xlink:href="#aX"/></g><g id="T"><use transform="matrix(0.05,0,0,0.05,0,0)" xlink:href="#ba"/><use transform="matrix(0.05,0,0,0.05,9,0)" xlink:href="#aO"/><use transform="matrix(0.05,0,0,0.05,12.949999999999998,0)" xlink:href="#ba"/><use transform="matrix(0.05,0,0,0.05,21.95,0)" xlink:href="#bb"/><use transform="matrix(0.05,0,0,0.05,26.950000000000003,0)" xlink:href="#aV"/><use transform="matrix(0.05,0,0,0.05,36.95,0)" xlink:href="#aN"/><use transform="matrix(0.05,0,0,0.05,40.900000000000006,0)" xlink:href="#aO"/><use transform="matrix(0.05,0,0,0.05,44.85000000000001,0)" xlink:href="#bt"/><use transform="matrix(0.05,0,0,0.05,53.85,0)" xlink:href="#bi"/><use transform="matrix(0.05,0,0,0.05,63.85,0)" xlink:href="#aO"/></g><g id="U"><use transform="matrix(0.05,0,0,0.05,0,0)" xlink:href="#bb"/><use transform="matrix(0.05,0,0,0.05,5,0)" xlink:href="#aN"/><use transform="matrix(0.05,0,0,0.05,8.95,0)" xlink:href="#aG"/><use transform="matrix(0.05,0,0,0.05,18.95,0)" xlink:href="#aP"/><use transform="matrix(0.05,0,0,0.05,27.950000000000003,0)" xlink:href="#aX"/></g><g id="V"><use transform="matrix(0.05,0,0,0.05,0,0)" xlink:href="#bb"/><use transform="matrix(0.05,0,0,0.05,5,0)" xlink:href="#aN"/><use transform="matrix(0.05,0,0,0.05,8.95,0)" xlink:href="#aG"/><use transform="matrix(0.05,0,0,0.05,18.95,0)" xlink:href="#aP"/><use transform="matrix(0.05,0,0,0.05,27.950000000000003,0)" xlink:href="#aL"/></g><path fill="#333" d="M190 0L58-211 59 0H30v-248h39L202-35l-2-213h31V0h-41" id="bw"/><path fill="#333" d="M106-169C34-169 62-67 57 0H25v-261h32l-1 103c12-21 28-36 61-36 89 0 53 116 60 194h-32v-121c2-32-8-49-39-48" id="bx"/><path fill="#333" d="M177-190C167-65 218 103 67 71c-23-6-38-20-44-43l32-5c15 47 100 32 89-28v-30C133-14 115 1 83 1 29 1 15-40 15-95c0-56 16-97 71-98 29-1 48 16 59 35 1-10 0-23 2-32h30zM94-22c36 0 50-32 50-73 0-42-14-75-50-75-39 0-46 34-46 75s6 73 46 73" id="by"/><g id="W"><use transform="matrix(0.05,0,0,0.05,0,0)" xlink:href="#aM"/><use transform="matrix(0.05,0,0,0.05,9,0)" xlink:href="#bf"/><use transform="matrix(0.05,0,0,0.05,14.949999999999998,0)" xlink:href="#aK"/><use transform="matrix(0.05,0,0,0.05,24.95,0)" xlink:href="#aG"/><use transform="matrix(0.05,0,0,0.05,34.95,0)" xlink:href="#bb"/><use transform="matrix(0.05,0,0,0.05,39.95,0)" xlink:href="#aK"/><use transform="matrix(0.05,0,0,0.05,49.95,0)" xlink:href="#bw"/><use transform="matrix(0.05,0,0,0.05,62.900000000000006,0)" xlink:href="#aK"/><use transform="matrix(0.05,0,0,0.05,72.9,0)" xlink:href="#bo"/><use transform="matrix(0.05,0,0,0.05,85.85000000000001,0)" xlink:href="#bk"/><use transform="matrix(0.05,0,0,0.05,97.85000000000001,0)" xlink:href="#bx"/><use transform="matrix(0.05,0,0,0.05,107.85000000000001,0)" xlink:href="#bf"/><use transform="matrix(0.05,0,0,0.05,113.80000000000001,0)" xlink:href="#aD"/><use transform="matrix(0.05,0,0,0.05,119.75,0)" xlink:href="#by"/><use transform="matrix(0.05,0,0,0.05,129.75,0)" xlink:href="#aK"/><use transform="matrix(0.05,0,0,0.05,139.75,0)" xlink:href="#bb"/><use transform="matrix(0.05,0,0,0.05,144.75,0)" xlink:href="#aZ"/><use transform="matrix(0.05,0,0,0.05,156.75,0)" xlink:href="#aK"/><use transform="matrix(0.05,0,0,0.05,166.75,0)" xlink:href="#ba"/><use transform="matrix(0.05,0,0,0.05,175.75,0)" xlink:href="#ba"/><use transform="matrix(0.05,0,0,0.05,184.75,0)" xlink:href="#aO"/><use transform="matrix(0.05,0,0,0.05,188.7,0)" xlink:href="#aV"/><use transform="matrix(0.05,0,0,0.05,198.7,0)" xlink:href="#bi"/><use transform="matrix(0.05,0,0,0.05,208.69999999999996,0)" xlink:href="#bm"/><use transform="matrix(0.05,0,0,0.05,213.69999999999996,0)" xlink:href="#aH"/><use transform="matrix(0.05,0,0,0.05,223.69999999999996,0)" xlink:href="#aD"/><use transform="matrix(0.05,0,0,0.05,229.64999999999998,0)" xlink:href="#aL"/><use transform="matrix(0.05,0,0,0.05,235.59999999999997,0)" xlink:href="#aL"/></g><g id="Y"><use transform="matrix(0.05,0,0,0.05,0,0)" xlink:href="#by"/><use transform="matrix(0.05,0,0,0.05,10,0)" xlink:href="#aK"/><use transform="matrix(0.05,0,0,0.05,20,0)" xlink:href="#bb"/><use transform="matrix(0.05,0,0,0.05,25,0)" xlink:href="#aZ"/><use transform="matrix(0.05,0,0,0.05,37,0)" xlink:href="#aK"/><use transform="matrix(0.05,0,0,0.05,47,0)" xlink:href="#ba"/><use transform="matrix(0.05,0,0,0.05,56,0)" xlink:href="#ba"/><use transform="matrix(0.05,0,0,0.05,65,0)" xlink:href="#aO"/><use transform="matrix(0.05,0,0,0.05,68.95,0)" xlink:href="#aV"/><use transform="matrix(0.05,0,0,0.05,78.95,0)" xlink:href="#bi"/><use transform="matrix(0.05,0,0,0.05,88.95,0)" xlink:href="#bm"/><use transform="matrix(0.05,0,0,0.05,93.95,0)" xlink:href="#aH"/><use transform="matrix(0.05,0,0,0.05,103.95,0)" xlink:href="#aD"/><use transform="matrix(0.05,0,0,0.05,109.9,0)" xlink:href="#aL"/></g><g id="Z"><use transform="matrix(0.05,0,0,0.05,0,0)" xlink:href="#aK"/><use transform="matrix(0.05,0,0,0.05,10,0)" xlink:href="#bx"/><use transform="matrix(0.05,0,0,0.05,20,0)" xlink:href="#bf"/><use transform="matrix(0.05,0,0,0.05,25.950000000000003,0)" xlink:href="#bm"/><use transform="matrix(0.05,0,0,0.05,30.950000000000003,0)" xlink:href="#aH"/></g><g id="aa"><use transform="matrix(0.05,0,0,0.05,0,0)" xlink:href="#aK"/><use transform="matrix(0.05,0,0,0.05,10,0)" xlink:href="#bx"/><use transform="matrix(0.05,0,0,0.05,20,0)" xlink:href="#bf"/><use transform="matrix(0.05,0,0,0.05,25.950000000000003,0)" xlink:href="#aD"/><use transform="matrix(0.05,0,0,0.05,31.899999999999995,0)" xlink:href="#aL"/></g><g id="ab"><use transform="matrix(0.05,0,0,0.05,0,0)" xlink:href="#be"/><use transform="matrix(0.05,0,0,0.05,10,0)" xlink:href="#aG"/><use transform="matrix(0.05,0,0,0.05,20,0)" xlink:href="#bb"/><use transform="matrix(0.05,0,0,0.05,25,0)" xlink:href="#aO"/><use transform="matrix(0.05,0,0,0.05,28.950000000000003,0)" xlink:href="#aK"/><use transform="matrix(0.05,0,0,0.05,38.95,0)" xlink:href="#bi"/><use transform="matrix(0.05,0,0,0.05,48.95,0)" xlink:href="#bb"/><use transform="matrix(0.05,0,0,0.05,53.95,0)" xlink:href="#bn"/><use transform="matrix(0.05,0,0,0.05,66.9,0)" xlink:href="#aG"/><use transform="matrix(0.05,0,0,0.05,76.9,0)" xlink:href="#bb"/><use transform="matrix(0.05,0,0,0.05,81.9,0)" xlink:href="#aG"/></g><path fill="#333" d="M30-248c87 1 191-15 191 75 0 78-77 80-158 76V0H30v-248zm33 125c57 0 124 11 124-50 0-59-68-47-124-48v98" id="bz"/><g id="ac"><use transform="matrix(0.05,0,0,0.05,0,0)" xlink:href="#aJ"/><use transform="matrix(0.05,0,0,0.05,10,0)" xlink:href="#aQ"/><use transform="matrix(0.05,0,0,0.05,20,0)" xlink:href="#aO"/><use transform="matrix(0.05,0,0,0.05,23.95,0)" xlink:href="#aN"/><use transform="matrix(0.05,0,0,0.05,27.899999999999995,0)" xlink:href="#aH"/><use transform="matrix(0.05,0,0,0.05,37.9,0)" xlink:href="#bz"/><use transform="matrix(0.05,0,0,0.05,49.9,0)" xlink:href="#aG"/><use transform="matrix(0.05,0,0,0.05,59.900000000000006,0)" xlink:href="#bb"/><use transform="matrix(0.05,0,0,0.05,64.9,0)" xlink:href="#aO"/><use transform="matrix(0.05,0,0,0.05,68.85000000000001,0)" xlink:href="#aK"/><use transform="matrix(0.05,0,0,0.05,78.85000000000001,0)" xlink:href="#bi"/><use transform="matrix(0.05,0,0,0.05,88.85000000000001,0)" xlink:href="#bb"/><use transform="matrix(0.05,0,0,0.05,93.85000000000001,0)" xlink:href="#bn"/><use transform="matrix(0.05,0,0,0.05,106.80000000000001,0)" xlink:href="#aG"/><use transform="matrix(0.05,0,0,0.05,116.80000000000001,0)" xlink:href="#bb"/><use transform="matrix(0.05,0,0,0.05,121.80000000000001,0)" xlink:href="#aG"/><use transform="matrix(0.05,0,0,0.05,131.8,0)" xlink:href="#aD"/><use transform="matrix(0.05,0,0,0.05,137.75,0)" xlink:href="#aO"/><use transform="matrix(0.05,0,0,0.05,141.7,0)" xlink:href="#bj"/><use transform="matrix(0.05,0,0,0.05,156.64999999999998,0)" xlink:href="#aK"/><use transform="matrix(0.05,0,0,0.05,166.64999999999998,0)" xlink:href="#aX"/></g><g id="ad"><use transform="matrix(0.05,0,0,0.05,0,0)" xlink:href="#aK"/><use transform="matrix(0.05,0,0,0.05,10,0)" xlink:href="#bx"/><use transform="matrix(0.05,0,0,0.05,20,0)" xlink:href="#bf"/><use transform="matrix(0.05,0,0,0.05,25.950000000000003,0)" xlink:href="#bm"/><use transform="matrix(0.05,0,0,0.05,30.950000000000003,0)" xlink:href="#aH"/><use transform="matrix(0.05,0,0,0.05,40.95,0)" xlink:href="#aL"/></g><g id="ae"><use transform="matrix(0.05,0,0,0.05,0,0)" xlink:href="#aM"/><use transform="matrix(0.05,0,0,0.05,9,0)" xlink:href="#bf"/><use transform="matrix(0.05,0,0,0.05,14.949999999999998,0)" xlink:href="#aK"/><use transform="matrix(0.05,0,0,0.05,24.95,0)" xlink:href="#aG"/><use transform="matrix(0.05,0,0,0.05,34.95,0)" xlink:href="#bb"/><use transform="matrix(0.05,0,0,0.05,39.95,0)" xlink:href="#aK"/><use transform="matrix(0.05,0,0,0.05,49.95,0)" xlink:href="#bw"/><use transform="matrix(0.05,0,0,0.05,62.900000000000006,0)" xlink:href="#aK"/><use transform="matrix(0.05,0,0,0.05,72.9,0)" xlink:href="#bo"/><use transform="matrix(0.05,0,0,0.05,85.85000000000001,0)" xlink:href="#bz"/><use transform="matrix(0.05,0,0,0.05,97.85000000000001,0)" xlink:href="#aG"/><use transform="matrix(0.05,0,0,0.05,107.85000000000001,0)" xlink:href="#bb"/><use transform="matrix(0.05,0,0,0.05,112.85000000000001,0)" xlink:href="#aO"/><use transform="matrix(0.05,0,0,0.05,116.80000000000001,0)" xlink:href="#aK"/><use transform="matrix(0.05,0,0,0.05,126.80000000000001,0)" xlink:href="#bi"/><use transform="matrix(0.05,0,0,0.05,136.8,0)" xlink:href="#bb"/><use transform="matrix(0.05,0,0,0.05,141.8,0)" xlink:href="#aD"/><use transform="matrix(0.05,0,0,0.05,147.75,0)" xlink:href="#be"/><use transform="matrix(0.05,0,0,0.05,157.75,0)" xlink:href="#aG"/><use transform="matrix(0.05,0,0,0.05,167.75,0)" xlink:href="#bb"/><use transform="matrix(0.05,0,0,0.05,172.75,0)" xlink:href="#aO"/><use transform="matrix(0.05,0,0,0.05,176.7,0)" xlink:href="#aK"/><use transform="matrix(0.05,0,0,0.05,186.7,0)" xlink:href="#bi"/><use transform="matrix(0.05,0,0,0.05,196.7,0)" xlink:href="#bb"/><use transform="matrix(0.05,0,0,0.05,201.7,0)" xlink:href="#bn"/><use transform="matrix(0.05,0,0,0.05,214.64999999999998,0)" xlink:href="#aG"/><use transform="matrix(0.05,0,0,0.05,224.64999999999998,0)" xlink:href="#bb"/><use transform="matrix(0.05,0,0,0.05,229.64999999999998,0)" xlink:href="#aG"/><use transform="matrix(0.05,0,0,0.05,239.64999999999998,0)" xlink:href="#aL"/></g><path fill="#333" d="M179-190L93 31C79 59 56 82 12 73V49c39 6 53-20 64-50L1-190h34L92-34l54-156h33" id="bA"/><g id="af"><use transform="matrix(0.05,0,0,0.05,0,0)" xlink:href="#aH"/><use transform="matrix(0.05,0,0,0.05,10,0)" xlink:href="#aK"/><use transform="matrix(0.05,0,0,0.05,20,0)" xlink:href="#bj"/><use transform="matrix(0.05,0,0,0.05,34.95,0)" xlink:href="#aV"/><use transform="matrix(0.05,0,0,0.05,44.95,0)" xlink:href="#by"/><use transform="matrix(0.05,0,0,0.05,54.95,0)" xlink:href="#bf"/><use transform="matrix(0.05,0,0,0.05,60.900000000000006,0)" xlink:href="#aG"/><use transform="matrix(0.05,0,0,0.05,70.9,0)" xlink:href="#be"/><use transform="matrix(0.05,0,0,0.05,80.9,0)" xlink:href="#bx"/><use transform="matrix(0.05,0,0,0.05,90.9,0)" xlink:href="#aO"/><use transform="matrix(0.05,0,0,0.05,94.85000000000001,0)" xlink:href="#aM"/><use transform="matrix(0.05,0,0,0.05,103.85000000000001,0)" xlink:href="#ba"/><use transform="matrix(0.05,0,0,0.05,112.85000000000001,0)" xlink:href="#aY"/><use transform="matrix(0.05,0,0,0.05,117.85000000000001,0)" xlink:href="#be"/><use transform="matrix(0.05,0,0,0.05,127.85000000000001,0)" xlink:href="#aG"/><use transform="matrix(0.05,0,0,0.05,137.85000000000002,0)" xlink:href="#bf"/><use transform="matrix(0.05,0,0,0.05,143.8,0)" xlink:href="#bb"/><use transform="matrix(0.05,0,0,0.05,148.8,0)" xlink:href="#bA"/><use transform="matrix(0.05,0,0,0.05,157.8,0)" xlink:href="#aD"/><use transform="matrix(0.05,0,0,0.05,163.75,0)" xlink:href="#be"/><use transform="matrix(0.05,0,0,0.05,173.75,0)" xlink:href="#aG"/><use transform="matrix(0.05,0,0,0.05,183.75,0)" xlink:href="#bb"/><use transform="matrix(0.05,0,0,0.05,188.75,0)" xlink:href="#aO"/><use transform="matrix(0.05,0,0,0.05,192.7,0)" xlink:href="#aK"/><use transform="matrix(0.05,0,0,0.05,202.7,0)" xlink:href="#bi"/><use transform="matrix(0.05,0,0,0.05,212.69999999999996,0)" xlink:href="#bb"/><use transform="matrix(0.05,0,0,0.05,217.69999999999996,0)" xlink:href="#bn"/><use transform="matrix(0.05,0,0,0.05,230.64999999999998,0)" xlink:href="#aG"/><use transform="matrix(0.05,0,0,0.05,240.64999999999998,0)" xlink:href="#bb"/><use transform="matrix(0.05,0,0,0.05,245.64999999999998,0)" xlink:href="#aG"/><use transform="matrix(0.05,0,0,0.05,255.64999999999998,0)" xlink:href="#aL"/></g><g id="ag"><use transform="matrix(0.05,0,0,0.05,0,0)" xlink:href="#be"/><use transform="matrix(0.05,0,0,0.05,10,0)" xlink:href="#aV"/><use transform="matrix(0.05,0,0,0.05,20,0)" xlink:href="#ba"/><use transform="matrix(0.05,0,0,0.05,29,0)" xlink:href="#bb"/><use transform="matrix(0.05,0,0,0.05,34,0)" xlink:href="#bz"/><use transform="matrix(0.05,0,0,0.05,46,0)" xlink:href="#aG"/><use transform="matrix(0.05,0,0,0.05,56,0)" xlink:href="#bb"/><use transform="matrix(0.05,0,0,0.05,61,0)" xlink:href="#aO"/><use transform="matrix(0.05,0,0,0.05,64.95,0)" xlink:href="#aK"/><use transform="matrix(0.05,0,0,0.05,74.95,0)" xlink:href="#bi"/><use transform="matrix(0.05,0,0,0.05,84.95,0)" xlink:href="#bb"/><use transform="matrix(0.05,0,0,0.05,89.95,0)" xlink:href="#aT"/><use transform="matrix(0.05,0,0,0.05,102.9,0)" xlink:href="#aK"/><use transform="matrix(0.05,0,0,0.05,112.9,0)" xlink:href="#aM"/><use transform="matrix(0.05,0,0,0.05,121.9,0)" xlink:href="#aV"/><use transform="matrix(0.05,0,0,0.05,131.9,0)" xlink:href="#bf"/><use transform="matrix(0.05,0,0,0.05,137.85,0)" xlink:href="#aH"/><use transform="matrix(0.05,0,0,0.05,147.85,0)" xlink:href="#aD"/><use transform="matrix(0.05,0,0,0.05,153.79999999999998,0)" xlink:href="#aK"/><use transform="matrix(0.05,0,0,0.05,163.79999999999998,0)" xlink:href="#bx"/><use transform="matrix(0.05,0,0,0.05,173.79999999999998,0)" xlink:href="#bf"/><use transform="matrix(0.05,0,0,0.05,179.74999999999997,0)" xlink:href="#bm"/><use transform="matrix(0.05,0,0,0.05,184.74999999999997,0)" xlink:href="#aH"/><use transform="matrix(0.05,0,0,0.05,194.74999999999997,0)" xlink:href="#aX"/></g><g id="ah"><use transform="matrix(0.05,0,0,0.05,0,0)" xlink:href="#bf"/><use transform="matrix(0.05,0,0,0.05,5.95,0)" xlink:href="#aK"/><use transform="matrix(0.05,0,0,0.05,15.949999999999998,0)" xlink:href="#aM"/><use transform="matrix(0.05,0,0,0.05,24.95,0)" xlink:href="#aV"/><use transform="matrix(0.05,0,0,0.05,34.95,0)" xlink:href="#bf"/><use transform="matrix(0.05,0,0,0.05,40.900000000000006,0)" xlink:href="#aH"/><use transform="matrix(0.05,0,0,0.05,50.900000000000006,0)" xlink:href="#bn"/><use transform="matrix(0.05,0,0,0.05,63.85,0)" xlink:href="#aG"/><use transform="matrix(0.05,0,0,0.05,73.85000000000001,0)" xlink:href="#bb"/><use transform="matrix(0.05,0,0,0.05,78.85000000000001,0)" xlink:href="#aG"/><use transform="matrix(0.05,0,0,0.05,88.85000000000001,0)" xlink:href="#aL"/></g><path fill="#333" d="M103-251c84 0 111 97 45 133-19 10-37 24-39 52H78c0-63 77-55 77-114 0-30-21-42-52-43-32 0-53 17-56 46l-32-2c7-45 34-72 88-72zM77 0v-35h34V0H77" id="bB"/><g id="ai"><use transform="matrix(0.05,0,0,0.05,0,0)" xlink:href="#aM"/><use transform="matrix(0.05,0,0,0.05,9,0)" xlink:href="#aV"/><use transform="matrix(0.05,0,0,0.05,19,0)" xlink:href="#bj"/><use transform="matrix(0.05,0,0,0.05,33.95,0)" xlink:href="#be"/><use transform="matrix(0.05,0,0,0.05,43.95,0)" xlink:href="#aV"/><use transform="matrix(0.05,0,0,0.05,53.95,0)" xlink:href="#ba"/><use transform="matrix(0.05,0,0,0.05,62.95,0)" xlink:href="#aO"/><use transform="matrix(0.05,0,0,0.05,66.9,0)" xlink:href="#bb"/><use transform="matrix(0.05,0,0,0.05,71.9,0)" xlink:href="#aO"/><use transform="matrix(0.05,0,0,0.05,75.85000000000001,0)" xlink:href="#aV"/><use transform="matrix(0.05,0,0,0.05,85.85000000000001,0)" xlink:href="#bi"/><use transform="matrix(0.05,0,0,0.05,95.85000000000001,0)" xlink:href="#bB"/><use transform="matrix(0.05,0,0,0.05,105.85000000000001,0)" xlink:href="#be"/><use transform="matrix(0.05,0,0,0.05,115.85000000000001,0)" xlink:href="#aG"/><use transform="matrix(0.05,0,0,0.05,125.85000000000001,0)" xlink:href="#bf"/><use transform="matrix(0.05,0,0,0.05,131.8,0)" xlink:href="#aG"/><use transform="matrix(0.05,0,0,0.05,141.8,0)" xlink:href="#bj"/><use transform="matrix(0.05,0,0,0.05,156.75,0)" xlink:href="#ba"/><use transform="matrix(0.05,0,0,0.05,165.75,0)" xlink:href="#aD"/><use transform="matrix(0.05,0,0,0.05,171.7,0)" xlink:href="#bf"/><use transform="matrix(0.05,0,0,0.05,177.64999999999998,0)" xlink:href="#aK"/><use transform="matrix(0.05,0,0,0.05,187.64999999999998,0)" xlink:href="#aM"/><use transform="matrix(0.05,0,0,0.05,196.64999999999998,0)" xlink:href="#aV"/><use transform="matrix(0.05,0,0,0.05,206.64999999999998,0)" xlink:href="#bf"/><use transform="matrix(0.05,0,0,0.05,212.59999999999997,0)" xlink:href="#aH"/><use transform="matrix(0.05,0,0,0.05,222.59999999999997,0)" xlink:href="#bn"/><use transform="matrix(0.05,0,0,0.05,235.54999999999995,0)" xlink:href="#aG"/><use transform="matrix(0.05,0,0,0.05,245.54999999999995,0)" xlink:href="#bb"/><use transform="matrix(0.05,0,0,0.05,250.54999999999995,0)" xlink:href="#aG"/><use transform="matrix(0.05,0,0,0.05,260.54999999999995,0)" xlink:href="#aL"/></g><g id="aj"><use transform="matrix(0.05,0,0,0.05,0,0)" xlink:href="#bm"/><use transform="matrix(0.05,0,0,0.05,5,0)" xlink:href="#bd"/><use transform="matrix(0.05,0,0,0.05,14,0)" xlink:href="#be"/><use transform="matrix(0.05,0,0,0.05,24,0)" xlink:href="#aO"/><use transform="matrix(0.05,0,0,0.05,27.950000000000003,0)" xlink:href="#bh"/><use transform="matrix(0.05,0,0,0.05,36.95,0)" xlink:href="#aO"/></g><g id="ak"><use transform="matrix(0.05,0,0,0.05,0,0)" xlink:href="#aV"/><use transform="matrix(0.05,0,0,0.05,10,0)" xlink:href="#aJ"/><use transform="matrix(0.05,0,0,0.05,20,0)" xlink:href="#bc"/><use transform="matrix(0.05,0,0,0.05,29,0)" xlink:href="#aK"/><use transform="matrix(0.05,0,0,0.05,39,0)" xlink:href="#ba"/><use transform="matrix(0.05,0,0,0.05,48,0)" xlink:href="#bb"/><use transform="matrix(0.05,0,0,0.05,53,0)" xlink:href="#aO"/><use transform="matrix(0.05,0,0,0.05,56.95,0)" xlink:href="#aN"/><use transform="matrix(0.05,0,0,0.05,60.900000000000006,0)" xlink:href="#aV"/><use transform="matrix(0.05,0,0,0.05,70.9,0)" xlink:href="#bg"/></g><g id="al"><use transform="matrix(0.05,0,0,0.05,0,0)" xlink:href="#aE"/><use transform="matrix(0.05,0,0,0.05,6.3500000000000005,0)" xlink:href="#bz"/><use transform="matrix(0.05,0,0,0.05,18.35,0)" xlink:href="#aV"/><use transform="matrix(0.05,0,0,0.05,28.35,0)" xlink:href="#aH"/><use transform="matrix(0.05,0,0,0.05,38.35,0)" xlink:href="#aG"/><use transform="matrix(0.05,0,0,0.05,48.35,0)" xlink:href="#bb"/><use transform="matrix(0.05,0,0,0.05,53.35,0)" xlink:href="#aP"/><use transform="matrix(0.05,0,0,0.05,62.35,0)" xlink:href="#aO"/></g><g id="am"><use transform="matrix(0.05,0,0,0.05,0,0)" xlink:href="#aQ"/><use transform="matrix(0.05,0,0,0.05,10,0)" xlink:href="#ba"/><use transform="matrix(0.05,0,0,0.05,19,0)" xlink:href="#be"/><use transform="matrix(0.05,0,0,0.05,29,0)" xlink:href="#aK"/><use transform="matrix(0.05,0,0,0.05,39,0)" xlink:href="#bi"/><use transform="matrix(0.05,0,0,0.05,49,0)" xlink:href="#aV"/></g><g id="an"><use transform="matrix(0.05,0,0,0.05,0,0)" xlink:href="#ba"/><use transform="matrix(0.05,0,0,0.05,9,0)" xlink:href="#bx"/><use transform="matrix(0.05,0,0,0.05,19,0)" xlink:href="#bf"/><use transform="matrix(0.05,0,0,0.05,24.95,0)" xlink:href="#aG"/><use transform="matrix(0.05,0,0,0.05,34.95,0)" xlink:href="#bi"/><use transform="matrix(0.05,0,0,0.05,44.95,0)" xlink:href="#aW"/><use transform="matrix(0.05,0,0,0.05,48.900000000000006,0)" xlink:href="#aK"/><use transform="matrix(0.05,0,0,0.05,58.900000000000006,0)" xlink:href="#bi"/><use transform="matrix(0.05,0,0,0.05,68.9,0)" xlink:href="#aO"/><use transform="matrix(0.05,0,0,0.05,72.85000000000001,0)" xlink:href="#aF"/><use transform="matrix(0.05,0,0,0.05,77.85000000000001,0)" xlink:href="#aE"/></g><g id="ao"><use transform="matrix(0.05,0,0,0.05,0,0)" xlink:href="#bz"/><use transform="matrix(0.05,0,0,0.05,12,0)" xlink:href="#aV"/><use transform="matrix(0.05,0,0,0.05,22,0)" xlink:href="#ba"/><use transform="matrix(0.05,0,0,0.05,31,0)" xlink:href="#aV"/><use transform="matrix(0.05,0,0,0.05,41,0)" xlink:href="#aH"/><use transform="matrix(0.05,0,0,0.05,51,0)" xlink:href="#aV"/><use transform="matrix(0.05,0,0,0.05,61,0)" xlink:href="#aJ"/><use transform="matrix(0.05,0,0,0.05,71,0)" xlink:href="#aO"/></g><g id="ap"><use transform="matrix(0.05,0,0,0.05,0,0)" xlink:href="#aS"/><use transform="matrix(0.05,0,0,0.05,12.950000000000001,0)" xlink:href="#aT"/><use transform="matrix(0.05,0,0,0.05,25.900000000000002,0)" xlink:href="#aU"/></g><use transform="matrix(0.05,0,0,0.05,0,0)" xlink:href="#bd" id="aq"/><g id="ar"><use transform="matrix(0.05,0,0,0.05,0,0)" xlink:href="#bi"/><use transform="matrix(0.05,0,0,0.05,10,0)" xlink:href="#aV"/><use transform="matrix(0.05,0,0,0.05,20,0)" xlink:href="#bc"/><use transform="matrix(0.05,0,0,0.05,29,0)" xlink:href="#aO"/><use transform="matrix(0.05,0,0,0.05,32.95,0)" xlink:href="#bj"/></g><g id="as"><use transform="matrix(0.05,0,0,0.05,0,0)" xlink:href="#bm"/><use transform="matrix(0.05,0,0,0.05,5,0)" xlink:href="#bn"/><use transform="matrix(0.05,0,0,0.05,17.950000000000003,0)" xlink:href="#aF"/></g><g id="at"><use transform="matrix(0.05,0,0,0.05,0,0)" xlink:href="#bo"/><use transform="matrix(0.05,0,0,0.05,12.950000000000001,0)" xlink:href="#aO"/><use transform="matrix(0.05,0,0,0.05,16.900000000000002,0)" xlink:href="#bi"/><use transform="matrix(0.05,0,0,0.05,26.900000000000002,0)" xlink:href="#aH"/><use transform="matrix(0.05,0,0,0.05,36.900000000000006,0)" xlink:href="#aV"/><use transform="matrix(0.05,0,0,0.05,46.900000000000006,0)" xlink:href="#bo"/><use transform="matrix(0.05,0,0,0.05,58.85,0)" xlink:href="#aF"/><use transform="matrix(0.05,0,0,0.05,63.85,0)" xlink:href="#aV"/><use transform="matrix(0.05,0,0,0.05,73.85000000000001,0)" xlink:href="#be"/><use transform="matrix(0.05,0,0,0.05,83.85000000000001,0)" xlink:href="#aK"/><use transform="matrix(0.05,0,0,0.05,93.85000000000001,0)" xlink:href="#bi"/><use transform="matrix(0.05,0,0,0.05,103.85000000000001,0)" xlink:href="#aD"/><use transform="matrix(0.05,0,0,0.05,109.80000000000001,0)" xlink:href="#aQ"/><use transform="matrix(0.05,0,0,0.05,119.80000000000001,0)" xlink:href="#bf"/><use transform="matrix(0.05,0,0,0.05,125.75,0)" xlink:href="#aN"/><use transform="matrix(0.05,0,0,0.05,129.70000000000002,0)" xlink:href="#aX"/></g><g id="au"><use transform="matrix(0.05,0,0,0.05,0,0)" xlink:href="#aE"/><use transform="matrix(0.05,0,0,0.05,6.3500000000000005,0)" xlink:href="#bp"/><use transform="matrix(0.05,0,0,0.05,16.35,0)" xlink:href="#ba"/><use transform="matrix(0.05,0,0,0.05,25.35,0)" xlink:href="#aK"/><use transform="matrix(0.05,0,0,0.05,35.35,0)" xlink:href="#aN"/><use transform="matrix(0.05,0,0,0.05,39.300000000000004,0)" xlink:href="#bq"/><use transform="matrix(0.05,0,0,0.05,44.300000000000004,0)" xlink:href="#aE"/><use transform="matrix(0.05,0,0,0.05,50.650000000000006,0)" xlink:href="#aL"/></g><path d="M33-154v-36h34v36H33zM33 0v-36h34V0H33" id="bC"/><path d="M33 0v-248h34V0H33" id="bD"/><path d="M117-194c89-4 53 116 60 194h-32v-121c0-31-8-49-39-48C34-167 62-67 57 0H25l-1-190h30c1 10-1 24 2 32 11-22 29-35 61-36" id="bE"/><path d="M85-194c31 0 48 13 60 33l-1-100h32l1 261h-30c-2-10 0-23-3-31C134-8 116 4 85 4 32 4 16-35 15-94c0-66 23-100 70-100zm9 24c-40 0-46 34-46 75 0 40 6 74 45 74 42 0 51-32 51-76 0-42-9-74-50-73" id="bF"/><path d="M100-194c63 0 86 42 84 106H49c0 40 14 67 53 68 26 1 43-12 49-29l28 8c-11 28-37 45-77 45C44 4 14-33 15-96c1-61 26-98 85-98zm52 81c6-60-76-77-97-28-3 7-6 17-6 28h103" id="bG"/><path d="M141 0L90-78 38 0H4l68-98-65-92h35l48 74 47-74h35l-64 92 68 98h-35" id="bH"/><g id="av"><use transform="matrix(0.05,0,0,0.05,0,0)" xlink:href="#bC"/><use transform="matrix(0.05,0,0,0.05,5,0)" xlink:href="#bD"/><use transform="matrix(0.05,0,0,0.05,10,0)" xlink:href="#bE"/><use transform="matrix(0.05,0,0,0.05,20,0)" xlink:href="#bF"/><use transform="matrix(0.05,0,0,0.05,30,0)" xlink:href="#bG"/><use transform="matrix(0.05,0,0,0.05,40,0)" xlink:href="#bH"/><path d="M-.9 1.25h50.8v1.32H-.9z"/></g><path d="M194 0L95-120 63-95V0H30v-248h33v124l119-124h40L117-140 236 0h-42" id="bI"/><path d="M100-194c62-1 85 37 85 99 1 63-27 99-86 99S16-35 15-95c0-66 28-99 85-99zM99-20c44 1 53-31 53-75 0-43-8-75-51-75s-53 32-53 75 10 74 51 75" id="bJ"/><path d="M141-36C126-15 110 5 73 4 37 3 15-17 15-53c-1-64 63-63 125-63 3-35-9-54-41-54-24 1-41 7-42 31l-33-3c5-37 33-52 76-52 45 0 72 20 72 64v82c-1 20 7 32 28 27v20c-31 9-61-2-59-35zM48-53c0 20 12 33 32 33 41-3 63-29 60-74-43 2-92-5-92 41" id="bK"/><g id="aw"><use transform="matrix(0.05,0,0,0.05,0,0)" xlink:href="#bC"/><use transform="matrix(0.05,0,0,0.05,5,0)" xlink:href="#bI"/><use transform="matrix(0.05,0,0,0.05,17,0)" xlink:href="#bJ"/><use transform="matrix(0.05,0,0,0.05,27,0)" xlink:href="#bF"/><use transform="matrix(0.05,0,0,0.05,37,0)" xlink:href="#bK"/><path d="M-.9 1.25h48.8v1.32H-.9z"/></g><path d="M160-131c35 5 61 23 61 61C221 17 115-2 30 0v-248c76 3 177-17 177 60 0 33-19 50-47 57zm-97-11c50-1 110 9 110-42 0-47-63-36-110-37v79zm0 115c55-2 124 14 124-45 0-56-70-42-124-44v89" id="bL"/><g id="ax"><use transform="matrix(0.05,0,0,0.05,0,0)" xlink:href="#bC"/><use transform="matrix(0.05,0,0,0.05,5,0)" xlink:href="#bL"/><use transform="matrix(0.05,0,0,0.05,17,0)" xlink:href="#bG"/><use transform="matrix(0.05,0,0,0.05,27,0)" xlink:href="#bF"/><path d="M-.9 1.25h38.8v1.32H-.9z"/></g><path d="M30 0v-248h187v28H63v79h144v27H63v87h162V0H30" id="bM"/><path d="M197 0v-115H63V0H30v-248h33v105h134v-105h34V0h-34" id="bN"/><path d="M233-177c-1 41-23 64-60 70L243 0h-38l-65-103H63V0H30v-248c88 3 205-21 203 71zM63-129c60-2 137 13 137-47 0-61-80-42-137-45v92" id="bO"/><path d="M240 0l2-218c-23 76-54 145-80 218h-23L58-218 59 0H30v-248h44l77 211c21-75 51-140 76-211h43V0h-30" id="bP"/><path d="M177-190C167-65 218 103 67 71c-23-6-38-20-44-43l32-5c15 47 100 32 89-28v-30C133-14 115 1 83 1 29 1 15-40 15-95c0-56 16-97 71-98 29-1 48 16 59 35 1-10 0-23 2-32h30zM94-22c36 0 50-32 50-73 0-42-14-75-50-75-39 0-46 34-46 75s6 73 46 73" id="bQ"/><path d="M114-163C36-179 61-72 57 0H25l-1-190h30c1 12-1 29 2 39 6-27 23-49 58-41v29" id="bR"/><g id="ay"><use transform="matrix(0.05,0,0,0.05,0,0)" xlink:href="#bC"/><use transform="matrix(0.05,0,0,0.05,5,0)" xlink:href="#bM"/><use transform="matrix(0.05,0,0,0.05,17,0)" xlink:href="#bN"/><use transform="matrix(0.05,0,0,0.05,29.950000000000003,0)" xlink:href="#bO"/><use transform="matrix(0.05,0,0,0.05,42.900000000000006,0)" xlink:href="#bP"/><use transform="matrix(0.05,0,0,0.05,57.85,0)" xlink:href="#bK"/><use transform="matrix(0.05,0,0,0.05,67.85000000000001,0)" xlink:href="#bE"/><use transform="matrix(0.05,0,0,0.05,77.85000000000001,0)" xlink:href="#bK"/><use transform="matrix(0.05,0,0,0.05,87.85000000000001,0)" xlink:href="#bQ"/><use transform="matrix(0.05,0,0,0.05,97.85000000000001,0)" xlink:href="#bG"/><use transform="matrix(0.05,0,0,0.05,107.85000000000001,0)" xlink:href="#bR"/><path d="M-.9 1.25h115.6v1.32H-.9z"/></g><path d="M30-248c118-7 216 8 213 122C240-48 200 0 122 0H30v-248zM63-27c89 8 146-16 146-99s-60-101-146-95v194" id="bS"/><path d="M210-169c-67 3-38 105-44 169h-31v-121c0-29-5-50-35-48C34-165 62-65 56 0H25l-1-190h30c1 10-1 24 2 32 10-44 99-50 107 0 11-21 27-35 58-36 85-2 47 119 55 194h-31v-121c0-29-5-49-35-48" id="bT"/><path d="M115-194c55 1 70 41 70 98S169 2 115 4C84 4 66-9 55-30l1 105H24l-1-265h31l2 30c10-21 28-34 59-34zm-8 174c40 0 45-34 45-75s-6-73-45-74c-42 0-51 32-51 76 0 43 10 73 51 73" id="bU"/><path d="M106-169C34-169 62-67 57 0H25v-261h32l-1 103c12-21 28-36 61-36 89 0 53 116 60 194h-32v-121c2-32-8-49-39-48" id="bV"/><path d="M24-231v-30h32v30H24zM24 0v-190h32V0H24" id="bW"/><path d="M96-169c-40 0-48 33-48 73s9 75 48 75c24 0 41-14 43-38l32 2c-6 37-31 61-74 61-59 0-76-41-82-99-10-93 101-131 147-64 4 7 5 14 7 22l-32 3c-4-21-16-35-41-35" id="bX"/><path d="M135-143c-3-34-86-38-87 0 15 53 115 12 119 90S17 21 10-45l28-5c4 36 97 45 98 0-10-56-113-15-118-90-4-57 82-63 122-42 12 7 21 19 24 35" id="bY"/><g id="az"><use transform="matrix(0.05,0,0,0.05,0,0)" xlink:href="#bC"/><use transform="matrix(0.05,0,0,0.05,5,0)" xlink:href="#bS"/><use transform="matrix(0.05,0,0,0.05,17.950000000000003,0)" xlink:href="#bG"/><use transform="matrix(0.05,0,0,0.05,27.950000000000003,0)" xlink:href="#bT"/><use transform="matrix(0.05,0,0,0.05,42.900000000000006,0)" xlink:href="#bJ"/><use transform="matrix(0.05,0,0,0.05,52.900000000000006,0)" xlink:href="#bQ"/><use transform="matrix(0.05,0,0,0.05,62.900000000000006,0)" xlink:href="#bR"/><use transform="matrix(0.05,0,0,0.05,68.85000000000001,0)" xlink:href="#bK"/><use transform="matrix(0.05,0,0,0.05,78.85000000000001,0)" xlink:href="#bU"/><use transform="matrix(0.05,0,0,0.05,88.85000000000001,0)" xlink:href="#bV"/><use transform="matrix(0.05,0,0,0.05,98.85000000000001,0)" xlink:href="#bW"/><use transform="matrix(0.05,0,0,0.05,102.80000000000001,0)" xlink:href="#bX"/><use transform="matrix(0.05,0,0,0.05,111.80000000000001,0)" xlink:href="#bY"/><path d="M-.9 1.25h122.6v1.32H-.9z"/></g><path d="M212-179c-10-28-35-45-73-45-59 0-87 40-87 99 0 60 29 101 89 101 43 0 62-24 78-52l27 14C228-24 195 4 139 4 59 4 22-46 18-125c-6-104 99-153 187-111 19 9 31 26 39 46" id="bZ"/><path d="M59-47c-2 24 18 29 38 22v24C64 9 27 4 27-40v-127H5v-23h24l9-43h21v43h35v23H59v120" id="ca"/><g id="aA"><use transform="matrix(0.05,0,0,0.05,0,0)" xlink:href="#bC"/><use transform="matrix(0.05,0,0,0.05,5,0)" xlink:href="#bZ"/><use transform="matrix(0.05,0,0,0.05,17.950000000000003,0)" xlink:href="#bJ"/><use transform="matrix(0.05,0,0,0.05,27.950000000000003,0)" xlink:href="#bT"/><use transform="matrix(0.05,0,0,0.05,42.900000000000006,0)" xlink:href="#bU"/><use transform="matrix(0.05,0,0,0.05,52.900000000000006,0)" xlink:href="#bJ"/><use transform="matrix(0.05,0,0,0.05,62.900000000000006,0)" xlink:href="#bY"/><use transform="matrix(0.05,0,0,0.05,71.9,0)" xlink:href="#bW"/><use transform="matrix(0.05,0,0,0.05,75.85000000000001,0)" xlink:href="#ca"/><use transform="matrix(0.05,0,0,0.05,80.85000000000001,0)" xlink:href="#bW"/><use transform="matrix(0.05,0,0,0.05,84.80000000000001,0)" xlink:href="#bJ"/><use transform="matrix(0.05,0,0,0.05,94.80000000000001,0)" xlink:href="#bE"/><path d="M-.9 1.25h106.6v1.32H-.9z"/></g></defs></g></svg>